<?xml version="1.0" encoding="UTF-8"?>
<svg id="Layer_1" data-name="Layer 1" xmlns="http://www.w3.org/2000/svg" viewBox="0 0 5000 5000">
  <defs>
    <style>
      .cls-1 {
        fill: #2b2b2d;
      }

      .cls-2 {
        fill: #415193;
      }

      .cls-3 {
        fill: #b2c0da;
      }

      .cls-4 {
        fill: #4a576b;
      }

      .cls-5 {
        fill: #afbdd8;
      }

      .cls-6 {
        fill: #302a1e;
      }

      .cls-7 {
        fill: #201f25;
      }

      .cls-8 {
        fill: #49566c;
      }

      .cls-9 {
        fill: #fff;
      }

      .cls-10 {
        fill: #f9fcff;
      }

      .cls-11 {
        fill: #4c5870;
      }

      .cls-12 {
        fill: #fbfcfd;
      }

      .cls-13 {
        fill: #6b7ab3;
      }

      .cls-14 {
        fill: #2c2b30;
      }

      .cls-15 {
        fill: #deb1a7;
      }

      .cls-16 {
        fill: #27291d;
      }

      .cls-17 {
        fill: #767bb4;
      }

      .cls-18 {
        fill: #fafafa;
      }

      .cls-19 {
        fill: #d2e5ff;
      }

      .cls-20 {
        fill: #4e5d72;
      }

      .cls-21 {
        fill: #212123;
      }

      .cls-22 {
        fill: #f9f8ff;
      }

      .cls-23 {
        fill: #99a6d2;
      }

      .cls-24 {
        fill: #fcfefd;
      }

      .cls-25 {
        fill: #48586b;
      }

      .cls-26 {
        fill: #262932;
      }

      .cls-27 {
        fill: #4a596e;
      }

      .cls-28 {
        fill: #fbfbfd;
      }

      .cls-29 {
        fill: #2c4182;
      }

      .cls-30 {
        fill: #a5b3d0;
      }

      .cls-31 {
        fill: #26292a;
      }

      .cls-32 {
        fill: #4b5692;
      }

      .cls-33 {
        fill: #a2b1d0;
      }

      .cls-34 {
        fill: #2c2c2f;
      }

      .cls-35 {
        fill: #dbdde4;
      }

      .cls-36 {
        fill: #8691c6;
      }

      .cls-37 {
        fill: #ecaf9a;
      }

      .cls-38 {
        fill: #2e2e30;
      }

      .cls-39 {
        fill: #e8b09b;
      }

      .cls-40 {
        fill: #fefeff;
      }

      .cls-41 {
        fill: #a4b3d1;
      }

      .cls-42 {
        fill: #b0bdd6;
      }

      .cls-43 {
        fill: #959597;
      }

      .cls-44 {
        fill: #7d96dc;
      }

      .cls-45 {
        fill: #4b596c;
      }

      .cls-46 {
        fill: #b8c6df;
      }

      .cls-47 {
        fill: #dbe2ec;
      }

      .cls-48 {
        fill: #f9f9fb;
      }

      .cls-49 {
        fill: #cfcfcf;
      }

      .cls-50 {
        fill: #454b59;
      }

      .cls-51 {
        fill: #29292b;
      }

      .cls-52 {
        fill: #606dba;
      }

      .cls-53 {
        fill: #201212;
      }

      .cls-54 {
        fill: #fffeff;
      }

      .cls-55 {
        fill: #272729;
      }

      .cls-56 {
        fill: #7078d2;
      }

      .cls-57 {
        fill: #e6e7ee;
      }

      .cls-58 {
        fill: #afbdd7;
      }

      .cls-59 {
        fill: #405291;
      }

      .cls-60 {
        fill: #18181a;
      }

      .cls-61 {
        fill: #8095e4;
      }

      .cls-62 {
        fill: #28292b;
      }

      .cls-63 {
        fill: #fafafb;
      }

      .cls-64 {
        fill: #435598;
      }

      .cls-65 {
        fill: #1f1e23;
      }

      .cls-66 {
        fill: #1b1b1c;
      }

      .cls-67 {
        fill: #435191;
      }

      .cls-68 {
        fill: #d0dff3;
      }

      .cls-69 {
        fill: #fafafc;
      }

      .cls-70 {
        fill: #ebffff;
      }

      .cls-71 {
        fill: #5e6db2;
      }

      .cls-72 {
        fill: #8095de;
      }

      .cls-73 {
        fill: #4a576e;
      }

      .cls-74 {
        fill: #4c596c;
      }

      .cls-75 {
        fill: #fbfbfb;
      }

      .cls-76 {
        fill: #9b9b9d;
      }

      .cls-77 {
        fill: #a6b4ce;
      }

      .cls-78 {
        fill: #232325;
      }

      .cls-79 {
        fill: #452717;
      }

      .cls-80 {
        fill: #fefdff;
      }

      .cls-81 {
        fill: #313133;
      }

      .cls-82 {
        fill: #fffaf7;
      }

      .cls-83 {
        fill: #d3d3d3;
      }

      .cls-84 {
        fill: #e4e7ee;
      }

      .cls-85 {
        fill: #25292a;
      }

      .cls-86 {
        fill: #505e74;
      }

      .cls-87 {
        fill: #e0e5ec;
      }

      .cls-88 {
        fill: #8b8b8d;
      }

      .cls-89 {
        fill: #4a566c;
      }

      .cls-90 {
        fill: #a3b1cf;
      }

      .cls-91 {
        fill: #ccd9f1;
      }

      .cls-92 {
        fill: #333237;
      }

      .cls-93 {
        fill: #565a5d;
      }

      .cls-94 {
        fill: #b6cbfa;
      }

      .cls-95 {
        fill: #bdbfcb;
      }

      .cls-96 {
        fill: #efefef;
      }

      .cls-97 {
        fill: #374887;
      }

      .cls-98 {
        fill: #a6a3b3;
      }

      .cls-99 {
        fill: #9a8190;
      }

      .cls-100 {
        fill: #3d3a2b;
      }

      .cls-101 {
        fill: #f1b29d;
      }

      .cls-102 {
        fill: #e5e8ef;
      }

      .cls-103 {
        fill: #1f1f1f;
      }

      .cls-104 {
        fill: #51608f;
      }

      .cls-105 {
        fill: #7f92df;
      }

      .cls-106 {
        fill: #fcfcfe;
      }

      .cls-107 {
        fill: #303034;
      }

      .cls-108 {
        fill: #fdfdff;
      }

      .cls-109 {
        fill: #b5b5b5;
      }

      .cls-110 {
        fill: #47556c;
      }

      .cls-111 {
        fill: #8a8a8a;
      }

      .cls-112 {
        fill: #74829f;
      }

      .cls-113 {
        fill: #d4d7df;
      }

      .cls-114 {
        fill: #667fd5;
      }

      .cls-115 {
        fill: #49586e;
      }

      .cls-116 {
        fill: #2a292f;
      }

      .cls-117 {
        fill: #bb949c;
      }

      .cls-118 {
        fill: #2a2c31;
      }

      .cls-119 {
        fill: #fafbfc;
      }

      .cls-120 {
        fill: #abb9d4;
      }

      .cls-121 {
        fill: #efb5a2;
      }

      .cls-122 {
        fill: #4a586e;
      }

      .cls-123 {
        fill: #b5c4de;
      }

      .cls-124 {
        fill: #343e48;
      }

      .cls-125 {
        fill: #e9ae9b;
      }

      .cls-126 {
        fill: #fcfdfe;
      }

      .cls-127 {
        fill: #fcfcfc;
      }

      .cls-128 {
        fill: #dcaa93;
      }

      .cls-129 {
        fill: #a8b6ce;
      }
    </style>
  </defs>
  <path class="cls-102" d="m3666.65,486.08c111.23-8.5,223.49,11.62,327.69,50.34,73.58,27.69,145.56,61.62,208.84,108.84,33.45,23.05,64.31,49.56,94.87,76.27,34.77,32.47,63.48,70.75,91.11,109.23,28.81,45.41,55.81,93.36,68.11,146.19,40.14,148.05,21.63,307.47-33.06,449.32-24.71,69.29-55.96,136.33-93.36,199.71-42.19,76.56-92.97,147.85-139.55,221.68-35.99,60.84-69.87,126.22-74.66,198.05-9.28,85.11,21.63,171.19,75,237.01,17.53,26.07,43.26,44.68,64.84,67.09,48.83,42.04,103.61,76.51,159.38,108.5,34.91,16.6,66.5,39.21,101.42,55.81,51.95,26.27,101.46,57.03,150.59,88.28,87.01,60.25,163.92,144.97,188.72,250.39,19.38,67.58,21.92,138.57,20.21,208.45-7.23,123.83-39.84,246.39-96.58,356.84-15.77,33.5-38.33,62.99-56.2,95.26-32.13,45.31-66.41,89.36-106.25,128.22-26.9,26.51-52.34,54.59-81.44,78.76-31.3,26.12-60.25,55.32-94.29,78.03,33.89-100.63,75.78-198.49,106.2-300.29,19.43-68.7,34.96-140.33,26.61-212.06-5.86-68.41-54.1-131.25-118.51-154.83-36.52-13.57-77.2-4.88-110.3,13.62-51.07,27.93-95.7,66.65-135.45,108.84-97.85,109.52-168.46,242.72-206.1,384.57-10.45,35.74-13.67,73-21.68,109.23-27.2,113.53-56.79,226.46-88.38,338.87-6.59,16.65,2,33.2,7.81,48.63,12.79,31.59,24.41,63.72,36.18,95.7,6.49,18.41,17.09,35.5,19.92,55.08-11.96-13.72-12.89-36.67-31.59-43.85-91.46-42.24-181.4-88.18-266.85-141.6l10.01.49c86.43,50.98,174.71,99.56,266.85,139.45-35.5-90.62-67.38-182.57-99.76-274.32-53.81-29.39-102.93-66.36-152.25-102.49-40.43-30.47-77.34-65.14-116.06-97.61-11.04-9.37-22.07-18.85-30.81-30.42,58.01,41.5,107.32,94.14,165.67,135.35,42.92,30.32,84.91,62.4,131.45,87.01-24.22-73.1-44.73-147.31-66.75-221.09-17.43-64.26-39.16-127.54-51.42-193.02,26.71,84.33,49.76,169.78,74.61,254.69,7.62-32.03,10.45-64.89,14.6-97.46,5.18-48.93,12.3-97.56,18.21-146.39,2.78-20.17,3.81-41.02,12.06-59.86.05,23.49-4.98,46.53-7.96,69.78-9.86,76.46-18.7,153.12-29.3,229.54-5.27,27,7.96,52.2,14.6,77.69,16.5,58.11,36.77,115.04,56.64,172.07,6.01,15.53,8.01,33.11,18.07,46.83,32.28-115.23,61.08-231.45,90.14-347.56,3.96-15.92-4.15-31.25-8.79-46.09-24.76-66.06-43.51-134.67-76.03-197.61-23.68-50-53.32-97.27-89.31-139.36,17.33,2.98,33.01,11.08,48.34,19.34-5.52-5.81-10.94-11.57-16.36-17.33,2.44-197.8.34-395.61,1.03-593.41-.05-458.98.05-917.97-.05-1376.95-5.18-38.92-3.56-78.22-8.3-117.14-2.88-26.66,2.64-54.59-8.3-79.98-9.47-21.87-7.23-50.1-27.83-65.77-12.16-37.6-50.24-53.71-76.37-79.74-10.79-10.01-26.03-10.79-39.89-11.91-35.16-19.97-77.39-17.19-116.41-18.07-39.21-5.08-78.76-2.25-118.12-3.27-28.32-1.22-56.35,7.81-84.52,2.44-23.88-4.49-47.56,2.59-71.39,2.73-29.59.44-59.23.73-88.53-3.42-19.38-2.88-38.53,2.83-57.86,2.05-40.87-4-83.5-7.28-123.44,4,.64-1.07,1.9-3.17,2.54-4.25,61.38-97.12,129-190.14,201.37-279.35,26.51-28.81,53.32-57.52,81.93-84.33,33.15-26.95,63.77-57.57,101.17-78.81,78.13-51.71,169.48-84.62,263.23-90.63m-1783.06,118.16c76.51-51.07,167.58-80.52,259.62-82.81,59.62-1.07,123.14,16.85,164.7,61.57,43.65,49.56,47.8,123.14,25.73,183.2-26.22,80.08-77.83,150.68-142.24,204.4-11.28,11.18-22.61,22.56-36.57,30.42-24.71,14.89-44.97,35.99-70.12,50.29,5.08-6.74,9.86-13.72,14.75-20.61-30.86,2.49-61.67-2.54-92.58-1.47-29.25-1.27-58.11,5.47-87.3,4-11.67-.54-23.29.93-34.81,2.39-19.73,3.47-38.09-7.18-57.03-10.64.49,2.98,1.56,8.94,2.1,11.91-7.18-2.29-14.36-4.25-21.53-6.45-45.8-15.48-93.7-43.7-110.21-91.89-8.2-37.35-5.03-76.76,4.93-113.48,30.18-92.82,99.27-168.9,180.57-220.85m-1061.33,653.37c86.18-6.2,175.49,12.6,249.17,58.74,29,17.29,57.13,36.67,79.93,61.82,31.25,30.71,59.13,67.53,68.41,111.18,2.69,20.75,3.91,44.82-10.64,61.82-10.69,15.04-27.59,24.32-45.36,28.27-40.62,10.01-82.13,16.36-122.17,28.76-76.37,26.66-150.78,65.58-205.52,126.46-29.93,27.05-51.95,61.77-83.84,86.77-39.21,33.69-100.49,39.7-145.12,13.33-35.64-18.99-59.08-52.93-79.35-86.67-56.93-104.69-54.15-241.85,16.36-339.6,19.87-23.97,39.16-49.07,64.7-67.43,60.99-48.1,136.52-75.29,213.43-83.45m684.91,1265.14c51.07-9.52,102.29-18.41,152.54-31.49,6.79-1.12,13.57-2.25,20.36-3.32,5.71,31.49,2.59,63.57,3.13,95.36.15,291.31-.1,582.62-.24,873.88.29,26.71,11.43,51.51,16.89,77.34,2.54,13.28,12.84,22.66,20.95,32.76,12.06,13.92,22.02,30.42,38.23,39.99,21.68,14.21,48.93,14.06,71.58,26.27,29,14.94,62.55,7.62,93.6,13.38,37.4,6.2,74.51-4.88,111.96-3.76,74.9.39,149.76.59,224.66.29,28.17.1,56.54-1.81,84.57,2.59,24.02,4.39,47.9-2.93,71.97-2.88,165.92.98,331.84-.49,497.8.39,48.78-.68,97.75,2.49,146.24-4.3,52.1-.49,104.49-2.93,156.35,3.27,20.9,1.61,41.65-7.18,62.45-3.08,14.06,3.61,15.53,19.34,18.26,31.15,2.05-6.93,4.2-13.87,6.15-20.75,5.96,36.28,18.8,71.24,22.95,107.86-29.3-14.4-56.4-33.5-87.21-44.63-9.81-3.52-22.41-2.78-28.13,7.13-16.41,22.66-13.33,52.59-12.3,78.96,3.03,55.62,39.75,104.39,37.26,160.6-12.35,47.12-68.02,74.02-67.04,126.32,0,9.42.34,18.9.15,28.47l-4.93,2.83c-.83-11.96-1.66-23.88-2.44-35.74-45.12-2.54-81.2,29.25-124.17,37.21-2.44-12.4-4.83-24.8-7.08-37.16,3.08-1.32,9.33-4,12.45-5.32,52.1-18.21,111.57-33.89,144.53-82.08,13.43-20.61,24.22-53.37,3.66-72.95-22.95-16.75-51.32,1.46-69.34,17.24-38.77,39.99-54.74,95.61-89.4,138.67l-4.2.49c-1.12-7.62-2.2-15.19-3.32-22.71-14.01-67.97-30.76-136.38-60.21-199.51,15.28-41.5,14.75-88.92-1.61-129.98-8.45-18.7-21.63-40.67-44.48-41.89-24.76-.34-40.33,24.37-41.89,46.68-6.4,46.29,22.12,90.43,59.13,115.72,9.91,7.42,23.58,11.87,28.22,24.51,9.91,21.73,17.68,44.43,23.93,67.48-32.96-29.49-66.75-59.57-108.59-75.73-24.8-10.3-53.12-13.09-79.15-5.81-17.58,5.18-35.16,20.41-33.06,40.38,1.95,21.78,22.12,36.38,42.09,40.97,53.17,14.7,106.84-11.18,160.45-3.37,9.37,1.66,19.34,6.64,21.92,16.7,13.48,39.99,20.8,81.79,29.74,123.05l.34,7.47c-7.91-5.22-15.77-10.3-23.34-15.87-30.42-21.19-54.93-49.8-86.38-69.53-22.66-14.36-54.3-19.34-77.39-3.32-26.71,16.7-21.19,61.13,4.88,75.73,20.36,11.72,44.58,12.94,67.53,13.48,38.67,3.76,77.54-3.66,116.06,1.86,3.13,13.04,6.1,26.17,8.64,39.4-17.68-2.29-35.79-1.37-52.49,5.18-32.13,11.57-64.45,22.41-96.78,33.4-20.36,4.3-44.04,14.7-43.6,39.21-30.08.44-57.23,14.99-85.74,22.75-53.32,15.19-106.15,32.18-159.77,46.34-24.37,7.03-50.63,6.93-73.54,18.75-254.88.83-509.81.15-764.75.49-2.29-11.52-4.59-23.24-10.64-33.4-14.7-12.11-31.01-21.88-47.36-31.4-41.75-24.32-73.73-61.28-110.99-91.41-4.3-16.6-9.23-32.96-15.09-49.02,2-.34,5.96-1.07,7.96-1.42-30.32-116.94-58.45-234.42-87.4-351.71-.1-2.54-.24-7.57-.29-10.06,6.45-1.37,12.94-2.64,19.43-3.76-14.5-58.5-25.68-117.72-38.28-176.66-36.33-159.47-70.85-319.38-105.86-479.15-22.41-106.1-48.29-211.47-69.24-317.87,16.06,2.25,32.37,5.37,48.68,3.32,17.63-3.12,31.2-16.5,41.94-29.98,21.34-28.22,33.25-61.91,47.75-93.85,14.65-36.38,32.08-71.58,46-108.25-.05,14.65,15.09,8.3,24.32,7.81m1522.66,1302.39c-15.48,36.33-24.51,75.2-30.37,114.21,46.48-30.71,104.79-55.13,127.49-110.06,9.77-19.24,4.74-46.78-18.21-53.08-34.28-7.76-65.87,19.09-78.91,48.93M605.62,2621.09c23.49.78,47.31-5.18,70.56.49-8.59,32.28-17.82,69.58.39,100.34,8.55,16.31,27.49,21.53,43.95,26.07-8.11,22.85-14.6,46.29-20.61,69.82-2.93-.15-8.79-.49-11.72-.63-8.15,18.16-15.72,36.57-23.97,54.74-18.65,40.14-35.16,81.25-54.49,121.14-10.21,22.51-23.1,48.05-13.67,73.05,4.35,13.92,16.94,23.34,30.76,26.71,41.46,11.28,83.89,18.41,125.78,27.69-16.55,144.24-33.11,288.53-46.14,433.11-1.07,4.35-2.2,8.69-3.42,13.09-16.94-.63-35.01-2.98-50.73,4.93-33.79,14.89-55.42,49.85-59.62,85.84-2.59,24.61-1.76,49.51-.29,74.22-39.55-17.53-71.73-47.36-107.32-71.29-35.11-31.64-74.76-58.45-105.71-94.48-78.96-79.15-146-171.44-189.31-274.9-56.35-120.9-81.25-257.96-62.11-390.58,9.96-60.99,30.57-123.34,75.24-167.97,50.54-53.32,122.27-79.74,192.92-93.51,69.09-12.45,139.31-18.41,209.52-17.87h0Z"/>
  <path class="cls-35" d="m1827.73,1025c18.95,3.47,37.3,14.11,57.03,10.64,11.52-1.46,23.14-2.93,34.81-2.39,29.2,1.46,58.06-5.27,87.3-4,30.91-1.07,61.72,3.96,92.58,1.47-4.88,6.88-9.67,13.87-14.75,20.61-9.86,6.4-19.78,12.79-29.93,18.7-30.22.34-60.45.39-90.58-2-45.21-8.4-91.46-13.77-134.38-31.1-.54-2.98-1.61-8.94-2.1-11.91h0Z"/>
  <path class="cls-66" d="m2804.79,1403.86c8.45-12.45,21.92,4.1,12.74,12.5-7.81,6.2-17.82-4.59-12.74-12.5m.39,24.07c5.18,0,10.35,0,15.62.05.34,23.78-.05,47.51.39,71.29-5.27-.44-10.45-.88-15.63-1.27-.24-23.39-.15-46.73-.39-70.07m-859.13,284.03c-6.35-16.85,7.28-37.4,25.88-34.37,10.01-1.07,15.09,8.69,20.07,15.63-10.45-2.78-21.14-12.45-32.08-6.49-11.43,7.67-9.52,28.32,3.66,33.25,10.3,3.61,18.46-5.81,27.2-9.28-4.15,21.58-39.94,22.85-44.73,1.27m143.85-36.38c11.23,14.5,3.96,36.57,4.54,53.96-11.87-14.84-5.96-36.47-4.54-53.96m46.73,1.17c2.1.15,6.35.39,8.5.49-.83,16.16-1.22,32.37-.78,48.53-2,.34-6.01.98-7.96,1.32.2-16.8.54-33.54.24-50.34m-139.16,37.06c-6.35-14.11,7.76-23.73,19.34-27,15.82,4.39,19.68,19.48,16.85,34.03-11.96,6.59-29.83,7.81-36.18-7.03m15.92-18.12c-14.31,3.52-10.21,24.02,3.52,25.1,16.16-1.66,11.91-28.52-3.52-25.1m31.3-8.98c2.05,1.32,6.05,3.96,8.06,5.22,7.86-3.17,16.21-1.61,24.27-.24.68,12.4.98,24.8,0,37.26-10.11-7.81-4.83-22.17-8.64-32.91-5.52-2.64-11.08,1.42-16.41,2.39,0,8.89,0,17.77.05,26.71-2,.2-6.01.49-8.01.63.29-13.04.39-26.07.68-39.06m110.69,40.43c.34-12.35.68-24.66,1.37-36.91,10.01.54,20.17-.05,30.18,1.46,2.83,12.55,5.18,28.52-2.88,39.65-1.71-11.43-2.1-22.95-2.44-34.42-6.05-.93-19.38-3.47-17.68,7.08-.34,7.32-.44,14.65-.2,22.02-2.1.29-6.25.83-8.35,1.12m-1100.44,192.29c8.54-3.86,17.87-4.39,27.1-3.61-.54,2.25-1.66,6.74-2.25,8.98-8.64-.1-18.51,2.39-24.85-5.37m54.39,12.45c1.42-.88,4.25-2.69,5.66-3.56.73,20.46,7.32,40.09,19.92,56.35-6.2,10.45-16.6,15.14-28.71,12.79,5.57-7.32,14.65-8.89,23-10.84-12.74-15.19-23.88-34.08-19.87-54.74m-160.84,43.9c2.25-2.49,4.54-4.93,6.84-7.32,11.38,9.86,23.78,20.02,28.32,35.06-6.25-4.49-11.67-9.91-16.99-15.38-4.88,3.27-9.86,6.45-14.84,9.57,3.66-4.39,7.47-8.74,11.28-12.94-4.88-3.08-9.77-6.01-14.6-8.98m136.08,32.18c11.57,3.56,22.9,7.76,34.13,12.26-5.47,4.39-10.89,10.16-18.51,9.96-8.79-4.3-11.77-14.06-15.62-22.22m-169.63,170.17c.83-.15,2.44-.44,3.27-.59,2.2-.34,6.64-1.07,8.89-1.42-6.69,45.65-14.06,91.26-20.17,137.01,25.93,3.13,52,5.62,77.64,10.94-20.41,17.72-39.21,37.26-56.1,58.4,21.92,34.42,44.24,68.65,65.63,103.47-.29.63-.98,2-1.27,2.64-1.17-.24-3.52-.68-4.69-.93-23.83-34.33-42.19-72.22-67.68-105.42,16.55-18.7,33.45-37.11,50.78-55.13-21.73-2.54-43.51-5.03-65.28-7.23-10.21,69.73-21.44,139.36-32.76,208.98-1.81-.34-5.42-1.07-7.18-1.42,13.48-87.3,27.25-174.56,39.11-262.06,4-29,11.47-57.81,9.81-87.26m2529.25,291.85c1.66,1.56,4.93,4.59,6.59,6.1,1.51,16.06-.05,32.28,1.9,48.34-6.64-2.78-12.99-5.62-19.38-8.74,16.99.68,11.38-23-1.22-24.22-8.98,3.27-8.11,13.57-9.91,21.05l3.42-2.05c1.56,3.66,4.74,10.99,6.3,14.6-20.65.78-22.56-30.47-7.03-37.65,6.05-3.27,12.5,1.07,18.51,2.44.1-6.64.34-13.28.83-19.87m21.24,25.49c-2.78-14.84,15.63-27.59,27.69-17.58,15.19,9.42-2.15,28.42-14.7,29.64,2.44-8.4,14.7-15.04,9.91-24.71-10.3-6.79-16.02,7.62-22.9,12.65m-571.78,4.59c1.76-17.04,29-18.99,36.33-5.03,4.59,6.79-.2,15.43.44,22.8-2.64-2.64-5.22-5.22-7.76-7.86,1.9-7.71-1.51-20.75-12.11-17.14-12.01.15-9.18,15.87-6.01,22.95,7.37-.24,14.89-.05,22.02,2.39-12.79,14.75-38.92,0-32.91-18.12m135.11-12.7c17.82-12.55,40.97,14.99,25.98,30.57-10.55,14.06-37.55,4.59-35.35-13.13-.34-6.89,3.27-14.26,9.37-17.43m5.62,5.62c-10.3,5.57-7.42,25.05,5.52,24.22,17.14-.24,10.4-33.94-5.52-24.22m84.86-7.08c11.87,4.64,29.54-6.4,36.23,8.84,6.84,12.7-1.42,26.86-14.75,30.03-3.17-2.29-9.57-6.79-12.74-9.08,0,8.01-.24,16.02-.64,24.07-14.4-13.67-5.86-36.23-8.11-53.86m8.74,14.01c-3.22,10.55,6.4,14.5,13.92,18.85,8.25-8.11,6.79-19.04,1.61-28.32-5.32,2.78-12.79,3.27-15.53,9.47m38.23,3.56c-3.61-22.02,22.71-20.21,34.13-10.3.15,9.38.29,18.8.19,28.22-8.06,1.46-16.26,2.34-24.27.2-2.25.68-6.74,2-8.98,2.69.15-6.98.39-13.96.68-20.9,8.94-.05,17.87-.15,26.86-.54-4.1-4.49-6.84-12.21-14.16-11.23-4.93,3.81-9.77,7.76-14.45,11.86m10.74,7.47c-3.81,8.79,13.57,9.42,14.94,1.61-.93-6.84-11.43-5.37-14.94-1.61m36.33-19.92c7.42-9.52,24.56-5.03,27.69,6.69-4.05-1.61-12.16-4.83-16.21-6.45-1.81,5.91-3.47,12.01-6.4,17.53-2.29-5.47-11.28-11.43-5.08-17.77m32.86,8.74c-.2-17.33,26.27-17.87,30.27-2.3-9.03-6.01-17.19-5.76-24.46.78,7.67,5.52,25.68,3.03,24.66,16.26-4.3,12.99-29.49,11.96-30.32-2.15,8.11,2.69,16.8,7.23,24.17.1-8.15-4-18.36-5.18-24.32-12.7m33.01-13.57c14.99-2.2,10.4,17.82,15.58,26.61,5.57-8.01,4.54-22.71,13.87-27.25,3.27,9.96,6.25,20.02,10.35,29.74,3.27-10.5-1.9-26.22,10.3-32.08-1.32,12.99.15,27.15-6.25,39.06-11.38,7.23-12.35-12.21-15.04-17.97-4.3,7.62-7.42,16.36-14.89,21.63-5.47-12.94-9.96-26.32-13.92-39.75m59.52,24.51c-3.95-13.72,8.74-24.07,20.75-27.1,18.36,2.83,24.51,22.02,16.6,37.55-12.89,3.81-31.93,5.08-37.35-10.45m15.58-16.16c-17.63,6.98,2.05,33.45,13.92,19.14,11.18-6.98-3.76-28.86-13.92-19.14m33.79-6.49c8.11-.83,16.26-1.86,24.37-3.12-3.47,5.62-8.4,9.33-14.94,11.18-.83,9.72-1.32,19.48-2.34,29.2-11.03-8.74-5.08-25.05-7.08-37.26m-2372.51,13.72c24.22-1.76,49.22-.15,72.51-8.11-1.66,3.47-4.93,10.35-6.59,13.82-7.28-1.27-14.26-4.1-21.44-5.71-14.36,2.69-28.71,5.42-43.36,5.96-.29-1.46-.83-4.49-1.12-5.96m80.13.1c6.69-5.81,17.38,5.27,11.28,11.87-6.74,6.79-16.65-5.52-11.28-11.87m2137.16,15.48c-3.37-5.76-6.64-11.57-9.77-17.43,10.11,1.76,24.66,12.84,11.91,21.78-7.03,4.15-15.87-.15-23.49-.49-.59-2.49-1.81-7.47-2.39-9.96,7.52,3.27,15.48,5.66,23.73,6.1m-2213.82,25.34c16.94-8.59,36.38-8.79,54.93-9.91,7.86.2,17.97-2.34,22.22,6.64-25.83-3.52-51.42,1.66-77.15,3.27m14.99,33.79c19.09-7.91,40.04-7.32,60.3-7.67.05,1.95.1,5.91.15,7.91-19.97-4.79-40.28,0-60.45-.24m-309.91,168.65c1.37,1.66,4.15,4.93,5.52,6.59-7.57,22.02-12.84,44.78-21.04,66.6l-8.64-.49c6.01-23.54,12.5-46.97,20.61-69.82.88-.73,2.69-2.15,3.56-2.88m42.09,243.8c2.83-3.66,5.81-7.13,8.94-10.5,1.9,2.05,5.66,6.15,7.57,8.2.15,2.64.49,7.81.68,10.4-6.84-.78-16.94,1.86-17.19-8.11m1684.28,88.18c10.55.05,21.09,0,31.64.98-8.25,8.98-27.34.88-24.8,18.51,6.88,1.07,16.55-1.51,19.78,6.88-4.44.15-13.38.49-17.87.68-2,6.84,1.56,17.82-8.5,19.92-.44-15.67-.15-31.3-.24-46.97m536.82,15.28c.15-17.29,28.66-19.63,29.79-2.05-3.86,8.35-11.57,13.82-18.6,19.29.24-9.77,11.57-16.85,6.79-26.76-5.96,3.22-11.96,6.4-17.97,9.52m-495.02-3.96c9.77-3.91,23.39,1.12,24.61,12.6,4.3,12.94-10.21,25.68-22.51,20.61-14.5-4.35-14.89-27.1-2.1-33.2m3.17,6.98c-13.13,6.25,1.81,30.96,12.16,17.63,10.06-6.59-3.66-26.12-12.16-17.63m29.54-8.01c7.71,2.25,15.72,2.25,23.68,1.32.2,8.98-8.94,7.86-15.09,9.57-.1,8.11-.15,16.31-.19,24.51-14.4-4-4.93-24.51-8.4-35.4m27.15,17.77c.64-17.87,19.73-18.8,33.06-16.11,1.22,12.65,2.69,25.63-.15,38.23-7.42,9.81-23.14,8.25-31.59.59,10.06-.68,23.1,5.13,28.56-6.88-11.72,2.49-32.13.98-29.88-15.82m12.65-8.84c-9.33,7.08-3.03,22.9,8.94,20.61,14.79-2.88,3.91-34.28-8.94-20.61m40.23-7.23c12.31-4.83,31.15,6.84,24.76,21-3.27,10.4-17.68,17.58-27,10.25-12.94-5.76-10.89-27.1,2.25-31.25m2,6.25c-8.11,3.52-7.91,16.65.2,20.12,6.88,7.13,15.53-3.47,17.87-9.62-1.56-6.64-11.23-18.12-18.07-10.5m114.45,6.4c2.15-10.84,12.99-16.7,22.66-11.38,12.5,6.49,7.71,21.88,8.64,33.2-1.95-.93-5.86-2.83-7.81-3.76-2.59,1.27-7.81,3.86-10.45,5.18-9.57-5.32-17.72-18.31-2.59-24.02-4.05,9.86-1.56,15.72,7.47,17.63,9.37-3.86,8.3-21.09-.54-24.66-5.91,2.39-11.67,4.98-17.38,7.81m39.36-9.42c7.03-6.05,16.75-3.61,23.68,1.32-4.49.29-13.38.98-17.82,1.32,8.5,6.84,17.92,14.55,14.21,26.86-9.38.49-20.07,2.3-25.88-7.18,5.08.1,15.19.34,20.26.49,1.17-10.16-19.19-11.28-14.45-22.8m25.05,8.45c4.88-14.06,24.41-17.53,32.32-4.1-6.1-.24-18.36-.78-24.46-1.07,6.69,7.52,21.83,8.55,23.83,19.38-6.88,11.18-23.83,10.6-32.03,1.32,7.62.24,15.23.44,22.85.59-2.59-9.86-15.43-10.45-22.51-16.11m35.45-16.46c9.28,6.05,10.69,16.89,12.79,27,4.1-8.25,7.96-16.6,12.35-24.66,3.03,8.4,5.27,17.19,10.16,24.9,3.12-8.74,2.54-20.26,11.62-25.44-1.76,13.09-4.35,26.17-9.62,38.38-6.64-5.27-10.16-13.28-14.94-19.97-2.15,7.18-2.83,15.43-7.76,21.63-6.4-13.38-12.5-27.1-14.6-41.85m62.26,5.03c23.54-12.6,37.35,30.57,11.72,33.54-20.12,5.76-30.13-25.59-11.72-33.54m-.39,8.59c-9.03,10.74,5.71,26.22,16.36,16.11,11.33-9.91-6.54-28.47-16.36-16.11h0Z"/>
  <path class="cls-26" d="m2567.04,1404.79c4.44,0,13.38-.1,17.82-.1-.2,26.56,0,53.17.19,79.79,12.26,1.17,24.61,1.07,36.91.63-.29,3.47-.98,10.4-1.32,13.92-17.92.83-35.79.64-53.71.39.39-31.54.2-63.09.1-94.63m-1396.29,771.83c1.9,1.46,5.66,4.44,7.57,5.91,8.45,42.09,16.06,84.42,21.73,127-14.21,3.13-28.42,6.25-42.63,9.47,17.97,17.72,38.77,32.42,55.86,51.03-14.11,38.23-28.61,76.37-41.94,114.94-6.59,18.99-11.13,38.87-20.85,56.64,2.1-13.38,5.42-26.46,8.98-39.45,14.7-44.34,32.32-87.6,46.83-131.98-22.66-18.21-43.07-39.65-69.29-52.93,17.97-7.28,37.65-7.57,56.45-11.28-5.52-43.46-15.28-86.23-22.71-129.35m227.54,157.52c20.46,8.94,38.33,22.61,57.96,33.11,21.34,12.94,44.14,24.07,63.28,40.33-19.78-4.3-35.21-18.21-52.49-27.83-22.66-15.53-49.8-25.29-68.75-45.61m-16.85,29.35c43.07,18.6,81.05,47.56,122.02,70.46-.34,1.61-1.07,4.83-1.42,6.45-31.74-19.63-62.7-40.53-95.46-58.3-9.23-5.03-17.82-11.13-25.15-18.6m-70.31,118.99c3.71-9.86,8.25-19.63,15.97-27.05-6.69,28.03-21.63,53.03-30.86,80.18-4.15,8.64-5.22,21.24-16.02,24.27,9.38-26.17,20.75-51.51,30.91-77.39m-413.04,71.09c-.73-7.71,2.59-14.36,6.98-20.36-2.29,48.54.54,99.17,20.95,143.99-10.69-2.34-12.11-14.55-15.19-23.1-8.74-32.72-13.23-66.7-12.74-100.54m-127.39,3.61c23.29-5.37,45.56-17.53,69.92-16.55-34.23,11.82-69.14,22.07-103.95,31.98,7.08-11.52,22.75-10.64,34.03-15.43m103.81,11.04c.73-10.35-.78-22.27,6.79-30.52-1.76,52.54-5.96,106.59,9.86,157.62-8.59-8.35-12.55-19.87-13.87-31.59-3.91-31.69-2.54-63.67-2.78-95.51m376.86,186.33c13.72,17.48,22.75,37.89,34.03,56.93,7.23,13.28,16.5,26.17,18.26,41.7-19.78-31.4-39.36-63.72-52.29-98.63m3110.5,493.16c1.61.44,4.83,1.37,6.45,1.86-27.44,64.75-49.41,131.59-71.53,198.29-6.93,16.46-8.89,35.89-21.09,49.51,5.47-27.54,16.6-53.42,25-80.13,18.07-57.32,39.01-113.72,61.18-169.53m24.41,92.09c10.25-13.82,18.36-29.88,32.62-40.14-31.88,53.96-71.87,102.98-103.32,157.37-14.8,26.76-34.13,50.98-46.83,78.81-29.05,96.14-48.24,195.02-66.41,293.6l-5.52,5.52c8.54-69.92,25.39-138.53,40.92-207.13,9.52-42.77,22.85-84.47,35.35-126.42,1.76.59,5.22,1.76,6.93,2.34,33.69-55.76,68.9-110.55,106.25-163.96m-248.19,150.49c2.69,2.83,4.44,6.2,5.27,10.01,14.4,109.03,30.91,217.82,47.9,326.51-2.2,2.83-4.35,5.71-6.54,8.64-6.59-66.16-19.48-131.54-28.03-197.46-6.35-49.22-16.11-98.1-18.6-147.7m204.1,192.33c16.41-19.58,29.64-42.48,50.88-57.52-4.39,7.47-9.03,14.8-14.4,21.63-54.88,67.92-108.98,136.96-154.15,211.87-13.38,23.19-32.42,45.31-33.45,73.29-2.44,78.37-.63,156.98,9.77,234.77,2.98,27.88,7.52,55.52,10.74,83.4-.83,2.64-2.54,7.86-3.37,10.5-7.57-35.89-8.98-72.75-15.82-108.69-34.23-68.8-75.63-134.03-109.42-203.08,13.28,10.4,19.48,26.61,27.64,40.87,25.49,48.19,52.98,95.36,78.96,143.36-4.3-73.97-8.4-148.19-2.98-222.27,1.86-13.96-.15-30.76,6.98-42.72,3.32,8.25,1.27,17.58,2,26.37,43.55-74.12,93.02-144.58,146.63-211.77M182.71,3832.42c35.64-9.28,69.58,11.47,92.68,36.96-2.25-.44-6.74-1.22-9.03-1.66-13.43-9.52-24.85-22.66-41.02-27.78-13.87-4.15-28.32-5.66-42.63-7.52m4002.83,6.69c3.76-.98,11.28-2.98,15.04-4-2.54,6.93,3.56,19.82-5.86,22.8-5.32-4.79-5.96-12.7-9.18-18.8m-1162.99,235.11c1.17-6.45,2.29-12.84,3.52-19.19,1.12,7.52,2.2,15.09,3.32,22.71l4.2-.49c2.64-.2,7.91-.63,10.55-.88-3.13,1.32-9.37,4-12.45,5.32,2.25,12.35,4.64,24.76,7.08,37.16,5.32,27.73,10.5,55.62,11.82,83.89-1.32,10.84-3.22,21.58-4.93,32.42-19.63-1.22-39.36-1.61-58.79,1.81l7.08-4.44c11.13-2.39,22.51-3.12,33.89-3.96-5.42-8.4-10.79-16.8-16.45-24.9,11.18,8.69,22.51,17.19,33.94,25.68-.93-35.6-6.25-70.9-12.4-105.91-2.54-13.23-5.52-26.37-8.64-39.4-38.53-5.52-77.39,1.9-116.06-1.86,26.32-3.76,52.93-2.69,79.44-3.17,3.96-4.44,7.91-8.84,11.91-13.18,7.57,5.57,15.43,10.64,23.34,15.87l-.34-7.47h0Z"/>
  <path class="cls-21" d="m2653.03,1428.47c13.77-3.17,30.96-2.83,40.58,9.23,18.99,18.02,9.77,56.74-17.29,60.69-21.48,7.32-46.92-10.79-46.78-33.5-1.22-15.48,8.45-31.74,23.49-36.43m4.59,13.67c-12.11,4.98-11.72,20.36-9.03,31.05,5.22,15.72,30.76,17.04,36.72,1.17,9.37-16.75-8.59-43.8-27.69-32.23m-458.98,250.05c2.93-.63,8.74-1.95,11.62-2.59-7.42,12.3.83,25.05-1.76,38.04,3.27.88,9.91,2.59,13.18,3.47-3.32-13.62,1.76-27.1,1.95-40.77,2.34.44,7.13,1.22,9.52,1.66-2.1,14.4-3.03,29-4.59,43.51-8.64-2.1-19.58.1-25.93-7.47-5.52-11.08-4.15-23.88-4-35.84m772.07,1382.37c1.51,1.17,4.49,3.56,6.01,4.74,1.32,14.45-.29,29.05,1.12,43.55-8.98-1.76-18.02.15-27,.34-11.67-4.3-11.04-22.22-3.76-30.27,5.52-7.42,14.99-3.42,22.46-2.69.29-3.91.88-11.77,1.17-15.67m-21.04,41.5c10.69,2.49,19.24-.98,23.58-11.57-4.54-4.25-9.52-7.81-14.99-10.55-10.55,2.44-6.88,14.36-8.59,22.12m-310.06,5.81c.1-14.45-3.56-29.35,2-43.21,5.03,5.81,10.35,11.62,15.67,17.38-2.69,0-8.11.05-10.79.1.88,8.5,1.66,17.04,2.39,25.63-2.29.05-6.98.1-9.28.1h0Z"/>
  <path class="cls-78" d="m2724.51,1435.21c11.82-12.7,31.98-10.99,45.41-1.76,4.64-4.44,10.84-5.08,16.94-5.71-.78,25.98,1.71,52.2-1.46,77.98-12.7,23.14-47.51,24.71-66.06,8.11.1-4.05-4.83-12.4,2.25-12.84,11.18,2.29,19.92,12.99,32.23,10.84,12.94.73,18.02-12.35,19.92-22.75-10.99,3.66-22.12,10.69-34.03,6.88-27.25-4.3-34.47-43.6-15.19-60.74m15.72,5.71c-11.43,7.71-12.55,26.81-3.52,36.72,6.88,9.13,22.56,8.64,29.44-.39,16.46-15.38-5.81-49.27-25.93-36.33h0Z"/>
  <path class="cls-55" d="m2857.18,1434.67c13.28-8.69,35.55-13.09,44.87,3.37,6.54,16.26,3.76,34.37,4.05,51.46,3.08,11.33-9.72,9.72-16.45,11.43-.78-17.92.68-35.99-1.76-53.76-7.28-8.89-22.02-9.91-29.35-.39-2.34,17.82-.93,35.89-1.03,53.86-7.18-1.27-21,.63-17.48-10.99,2.3-21-5.91-44.63,4.93-63.77,3.03,2.2,9.18,6.59,12.21,8.79m621,1080.66c4-6.79,16.31-.63,10.55,6.35-4.1,6.49-16.16.54-10.55-6.35m-560.74,572.02c2.25.73,6.74,2.2,8.98,2.98,4.59-1.12,9.18-2.15,13.87-3.03-2.44,6.54-8.98,8.69-14.75,11.43-2.05,8.98,1.61,21.24-7.96,26.61-.83-12.7-.64-25.39-.15-37.99h0Z"/>
  <path class="cls-75" d="m2657.62,1442.14c19.09-11.57,37.06,15.48,27.69,32.23-5.96,15.87-31.49,14.55-36.72-1.17-2.69-10.69-3.08-26.07,9.03-31.05h0Z"/>
  <path class="cls-106" d="m2740.23,1440.92c20.12-12.94,42.38,20.95,25.93,36.33-6.88,9.03-22.56,9.52-29.44.39-9.03-9.91-7.91-29,3.52-36.72m-1202.88,774.37c5.08-1.17,10.16-2.25,15.28-3.32,15.28-2.34,30.81-1.22,46.19-.88-20.36,3.42-41.02,2.98-61.47,4.2m958.06,880.13c8.5-8.5,22.22,11.04,12.16,17.63-10.35,13.33-25.29-11.38-12.16-17.63m634.91,1131.69c22.31-1.46,43.9-8.25,64.84-16.02,8.84,24.61,15.87,49.9,26.61,73.83,51.37,2.25,103.22-3.91,154.25,3.56-107.27.93-214.5.78-321.78.78-.34-19.38-.39-38.72-1.42-58.06,25.54-4.69,51.66-2.15,77.49-4.1h0Z"/>
  <path class="cls-14" d="m2107.13,1692.72c3.17-1.22,9.52-3.66,12.65-4.88,3.08,2.93,6.2,5.86,9.28,8.84-2.98.1-8.98.29-11.96.39,3.08,9.52,5.76,19.19,8.79,28.76-8.4-.2-17.63,1.71-24.95-3.56,21.29.93,8.69-19.68,6.2-29.54h0Z"/>
  <path class="cls-18" d="m2013.38,1695.7c15.43-3.42,19.68,23.44,3.52,25.1-13.72-1.07-17.82-21.58-3.52-25.1m-929.44,489.5c7.18.24,10.79-6.54,14.7-11.28,2.39.98,7.13,2.93,9.47,3.91-16.21,6.45-10.2,25.19-9.91,38.62,5.47,46.24,6.49,93.65,21.48,138.13-34.47,2.15-69.19,3.13-103.66.78-6.49-57.18-5.71-116.26-25.73-170.9,31.2-.15,62.55,5.27,93.65.73h0Z"/>
  <path class="cls-62" d="m1014.99,1780.47c25.59-.98,48.29-16.41,74.12-15.53,34.08-1.22,69.58,11.57,91.8,38.14,21.44,28.71,33.89,64.36,33.45,100.34-7.52-.1-15.04,0-22.51-.78-32.62-4.64-64.5-14.11-95.07-26.27l7.18-.98c-8.64-8.25-16.85-18.26-28.91-21.48-10.74-2.54-21.78-.24-32.57.59.44-9.42.49-18.8.63-28.17-2.39,25.98-7.42,52.2-20.56,75.05-9.91,19.97-27.29,34.33-43.02,49.51-1.42.88-4.2,2.69-5.57,3.61-10.35-1.12-21.97-3.08-30.71,4-17.38,12.16-18.07,38.23-7.62,55.13,9.86,14.5,27.2,20.56,42.29,27.98.88,15.09-.78,30.22-8.01,43.75-11.13,27.15-10.01,57.18-14.36,85.79-9.52,1.51-18.95,3.47-28.47,4.98-2.25.34-6.69,1.07-8.89,1.42-.83.15-2.44.44-3.27.59-20.02,3.86-39.84,8.84-59.91,12.65-12.89-20.17-26.86-42.04-24.95-67.04-.49-25.29,13.28-47.22,24.61-68.75-24.32,22.07-36.96,56.59-29.83,89.01,2.44,18.75,14.5,33.89,26.37,47.8-5.96,2.69-11.87,5.32-17.63,8.25-17.72-23.05-29.3-51.37-29.15-80.71,1.07-39.99,24.95-79.3,61.38-96.63,18.9-9.57,40.19-12.45,60.3-18.41-16.11-34.13-28.08-72.22-21.53-110.25,5.37-56.98,52.64-108.2,110.4-113.57m98.39,16.11c24.37,21.73,50.78,44.29,82.71,53.52-30.66-12.99-53.91-37.65-82.71-53.52h0Z"/>
  <path class="cls-83" d="m2169.58,1769.68c12.4-1.51,24.95-2.83,37.5-3.08,403.56-.1,807.13-.93,1210.69-.34,30.66.49,59.52,16.75,79.74,39.21,32.57,36.62,37.45,94.43,12.16,136.38-17.24,31.35-51.71,49.95-86.52,53.86-42.33,3.76-84.91,1.37-127.39,1.61-240.87,1.32-481.84-.73-722.7.2-154.44-1.47-308.94-2-463.38-1.37-36.96-1.32-76.86,3.27-110.6-15.09-30.91-15.38-52.49-46.73-58.2-80.47-10.4-50.88,24.41-104.83,72.56-121.29,51.17-11.87,104.25-4.2,156.15-9.62m19.48,4.93c-39.6,2.39-79.3,3.32-118.9,4.3-23.24,1.71-47.95,1.42-68.65,13.57-24.37,13.87-41.94,38.18-50.88,64.4-5.96,28.22-3.12,60.35,15.28,83.69,23.24,32.91,64.7,48.63,104.1,46.92,179.05,1.07,358.11.59,537.16,2.39,263.82.39,527.64.39,791.45,0,37.84,1.42,76.56-13.77,99.71-44.43,17.92-25.88,23.05-59.42,16.6-89.89-8.69-40.09-43.51-71.88-83.01-80.71-20.85-3.32-42.04-.88-63.04-1.12-333.5-.05-667.04-.2-1000.54.2-59.77-.15-119.58-2.83-179.3.68h0Z"/>
  <path class="cls-95" d="m1113.38,1796.58c28.81,15.87,52.05,40.53,82.71,53.52-31.93-9.23-58.35-31.79-82.71-53.52m-280.13,2331.88c11.72.24,23.44.49,35.21.63-1.46,6.49-2.83,13.09-4.1,19.73l-.93,5.47c-1.81,9.42-3.86,18.75-5.86,28.17-9.77-17.24-17.63-35.45-24.32-54h0Z"/>
  <path class="cls-113" d="m1043.12,1826.32c-.15,9.37-.2,18.75-.63,28.17-7.08,38.13-25.63,79.44-62.94,96.39,15.72-15.19,33.11-29.54,43.02-49.51,13.13-22.85,18.16-49.07,20.56-75.05m636.96,661.62c11.18-2.1,22.22-4.93,33.2-7.72,1.37,5.47,2.69,10.94,3.96,16.5-1.03,305.52.1,610.99-.29,916.5.24,28.42-3.56,58.54,9.08,85.11,16.75,43.6,63.82,71,109.72,69.78,171-.93,342.04-.54,513.04-.63,22.61-.54,45.31-.44,67.77,2.54,8.15.93,16.36,1.81,24.61,2.25,285.84.54,571.68-.49,857.52.54.1,6.59.29,13.28.63,19.97.83,17.82,3.81,35.45,6.15,53.13l-.83,3.96c-1.95,6.88-4.1,13.82-6.15,20.75-2.73-11.82-4.2-27.54-18.26-31.15-20.8-4.1-41.55,4.69-62.45,3.08-51.86-6.2-104.25-3.76-156.35-3.27-48.49,6.79-97.46,3.61-146.24,4.3-165.97-.88-331.88.59-497.8-.39-24.07-.05-47.95,7.28-71.97,2.88-28.03-4.39-56.4-2.49-84.57-2.59-74.9.29-149.76.1-224.66-.29-37.45-1.12-74.56,9.96-111.96,3.76-31.05-5.76-64.6,1.56-93.6-13.38-22.66-12.21-49.9-12.06-71.58-26.27-16.21-9.57-26.17-26.07-38.23-39.99-8.11-10.11-18.41-19.48-20.95-32.76-5.47-25.83-16.6-50.63-16.89-77.34.15-291.26.39-582.57.24-873.88-.54-31.79,2.59-63.87-3.13-95.36h0Z"/>
  <path class="cls-6" d="m1042.48,1854.49c10.79-.83,21.83-3.13,32.57-.59,12.06,3.22,20.26,13.23,28.91,21.48l-7.18.98c-12.79-4.79-24.95-11.04-37.11-17.14-8.94,33.84-21.24,70.95-52.54,90.53-9.72,7.03-21.92,6.54-33.15,4.74,1.37-.93,4.15-2.73,5.57-3.61,37.3-16.94,55.86-58.25,62.94-96.39h0Z"/>
  <path class="cls-88" d="m2198.68,1851.07c6.79-2.44,9.33-.24,7.62,6.69-6.79,2.39-9.33.15-7.62-6.69h0Z"/>
  <path class="cls-37" d="m1059.67,1859.23c12.16,6.1,24.32,12.35,37.11,17.14,30.57,12.16,62.45,21.63,95.07,26.27-1.17,33.06-2.88,66.11-1.37,99.22,2.78,33.3-7.91,69.73-35.84,89.99-13.33,9.57-28.66,22.95-46.24,18.12-11.96-2.69-24.17-1.51-36.23-1.51-2-1.56-5.96-4.64-7.91-6.2.63,1.32,1.9,4,2.54,5.37-7.13-2.39-14.21-4.74-21.29-7.08,14.7,14.89,31.98,26.61,49.66,37.69,7.28,10.55,5.71,23.83,3.47,35.69-3.91,4.74-7.52,11.52-14.7,11.28-31.1,4.54-62.45-.88-93.65-.73-5.47-2.88-10.89-5.86-16.46-8.5-1.76-30.22,2.54-60.89-3.91-90.62,7.23-13.53,8.89-28.66,8.01-43.75-15.09-7.42-32.42-13.48-42.29-27.98-10.45-16.89-9.77-42.97,7.62-55.13,8.74-7.08,20.36-5.13,30.71-4,11.23,1.81,23.44,2.29,33.15-4.74,31.3-19.58,43.6-56.69,52.54-90.53m-4.74,60.2c6.35,7.76,16.21,5.27,24.85,5.37.59-2.25,1.71-6.74,2.25-8.98-9.23-.78-18.55-.24-27.1,3.61m84.47,4.1c10.79-.29,29.64,6.74,29.98-10.35-11.04.29-23,.24-29.98,10.35m-30.08,8.35c-4,20.65,7.13,39.55,19.87,54.74-8.35,1.95-17.43,3.52-23,10.84,12.11,2.34,22.51-2.34,28.71-12.79-12.6-16.26-19.19-35.89-19.92-56.35-1.42.88-4.25,2.69-5.66,3.56m-50.93,9.96c-1.81,9.86-2.93,25.49,11.04,26.17,13.43.49,10.64-16.7,10.89-25.49-7.32-.44-14.6-.68-21.92-.68m96.87,0c-13.48,1.86-19.09,24.02-3.71,27.49,17.53,5.03,19.19-27.98,3.71-27.49m-206.79,33.94c4.83,2.98,9.72,5.91,14.6,8.98-3.81,4.2-7.62,8.54-11.28,12.94,4.98-3.13,9.96-6.3,14.84-9.57,5.32,5.47,10.74,10.89,16.99,15.38-4.54-15.04-16.94-25.2-28.32-35.06-2.29,2.39-4.59,4.83-6.84,7.32m136.08,32.18c3.86,8.15,6.84,17.92,15.62,22.22,7.62.19,13.04-5.57,18.51-9.96-11.23-4.49-22.56-8.69-34.13-12.26h0Z"/>
  <path class="cls-81" d="m2527.1,1867.87c6.15-1.71,12.3-3.37,18.51-5.03,4.35,3.96,8.79,7.96,13.04,12.16-6.15-.29-10.79-2.88-13.92-7.76-3.66.49-10.94,1.42-14.6,1.9.54,14.26,16.36,14.26,26.32,19.09-.39,4.39-.78,8.84-1.17,13.28-10.99.54-23.29,2.69-32.18-5.42,9.33.73,18.7,1.51,28.13,2.34-2.73-12.45-16.6-13.13-25.68-18.55.39-2.98,1.17-8.98,1.56-12.01m-85.79-.73c14.36-3.56,28.91-.44,34.67,14.79-12.16,1.37-24.22,3.22-36.04,6.3,7.57,12.79,21.29,8.15,33.25,9.62-10.55,3.56-25.29,8.69-33.15-2.64-3.08-8.98-2.83-19.48,2.39-27.64.49,3.81,1.56,11.43,2.05,15.23,7.91-.98,15.82-2.1,23.73-3.27-5.22-10.5-16.99-10.4-26.9-12.4m-412.6,243.46c7.57,1.37,15.23,2.88,22.46,5.86-7.13-.63-14.26-1.95-21.24-3.03,1.42,2.64,4.25,7.91,5.71,10.55,5.71,2,10.3,5.52,13.72,10.55-7.62-3.47-14.65-7.91-21.68-12.3.24-2.93.78-8.74,1.03-11.62m22.71,159.52c7.13-5.08,19.09-1.71,22.27,6.64,5.71,9.62-.78,26.56-13.33,25.24-16.89,1.81-23.19-24.17-8.94-31.88h0Z"/>
  <path class="cls-43" d="m2198.34,1867.58c2.05-.98,6.15-3.03,8.2-4.05.83,14.36,1.07,28.71.88,43.11-16.5-4.15-8.54-26.51-9.08-39.06h0Z"/>
  <path class="cls-50" d="m2405.22,1866.99c9.03-.29,18.12-.68,27.2-.15-5.81,2.49-11.82,4.54-17.72,6.59-2.39,9.91-3.96,20.07-4.79,30.27-1.27-.2-3.71-.59-4.93-.78.15-11.96.24-23.97.24-35.94m-412.16,268.12c2.25-9.37-.59-25.98,14.11-23.63,13.82-.63,6.01,16.8,8.15,25.15-7.47-.49-14.89-1.03-22.27-1.51m8.94-18.8c1.37,16.06,14.75-8.15,0,0m-.93,8.5c-2.39,7.67.54,10.21,8.84,7.67,2.25-7.81-.68-10.35-8.84-7.67m1368.21,101.56c16.89-11.62,38.77-9.03,57.96-6.35,45.17,16.7,55.22,86.62,16.31,115.28,9.81-13.48,20.31-27.69,21.34-44.97,2.39-26.17-10.16-56.2-35.74-66.36-18.99-5.27-41.31-6.93-58.59,4.25-20.07,10.84-30.66,34.77-29.49,56.98-.19,28.08,23.14,50.88,48.24,59.77,16.6,5.42,33.35-1.32,49.41-5.42-13.67,6.84-28.86,13.53-44.43,9.42-31.59-8.2-59.91-38.82-55.71-72.95,2.78-19.68,12.35-40.09,30.71-49.66m-1835.89,11.96c7.32,7.52,17.43,5.96,26.86,4.54,15.09-1.07,30.27-1.51,45.41-.59,1.95.68,5.81,2.1,7.76,2.78-23.78,4.93-48.14,2.44-72.12,4.54-2.73-3.76-5.37-7.52-7.91-11.28m-692.48,606.59c19.29-23.24,30.03-53.13,53.08-73.05-9.23,27.64-31.2,48.19-45.26,73.29,14.99,2.39,29.93,5.81,45.12,6.05,17.19-20.51,24.32-48.34,45.31-66.06-8.84,24.95-27.1,44.92-37.55,69.19,14.7,2.83,29.44,5.42,43.95,9.23-36.82,33.84-25.05,90.19-52.78,129.1-4.74,6.1-11.13,11.72-19.14,12.6-25,3.12-51.03,2.15-74.66-7.32.93-12.11,2.54-30.08-13.33-32.86-17.38-6.88-27.83,9.28-34.33,22.41-23.88-5.62-50.98-5.27-71.34-20.26-25.49-27-12.65-66.65-10.55-99.37l-5.22,4.05c8.25-18.16,15.82-36.57,23.97-54.74,2.93.15,8.79.49,11.72.63l8.64.49c34.23,4.93,67.97,12.55,101.81,19.58,10.21,2.25,20.41,4.59,30.57,7.03m24.51,1443.6c106.15-.78,212.35-.98,318.55.29,150.63,1.17,301.22-1.81,451.81-.88,37.11.98,74.32-4,111.28,1.17l1.32.15c1.95,1.46,5.91,4.44,7.86,5.96-105.27,3.96-210.69,1.03-316.02,2-191.85.44-383.59-1.46-575.44-1.03.2-1.9.49-5.76.63-7.67h0Z"/>
  <path class="cls-40" d="m2045.9,1873.44c4.93-4.15,15.33-3.96,17.97,2.88-.98,9.57-24.07,7.18-17.97-2.88m89.06,242.29c8.69-9.42,23.88,4.3,14.5,13.43-7.67,13.53-29-4.59-14.5-13.43m-1210.99,2024.51c16.8-4.79,34.52-2.98,50.93,2.54,2.25,12.3,7.52,25.49,2.78,37.94-9.13,25.39-48.78,30.66-64.45,8.84-7.86-11.04-5.71-25.49-6.59-38.18,5.71-3.81,11.47-7.62,17.33-11.13h0Z"/>
  <path class="cls-108" d="m2363.28,1875.29c5.18-6.74,14.26-2.25,21.19-2.49.29,4.88.78,14.7,1.07,19.58-6.59,5.86-15.43,7.28-23.29,3.08-1.12-6.35-4.79-15.14,1.03-20.17h0Z"/>
  <path class="cls-79" d="m1139.4,1923.53c6.98-10.11,18.95-10.06,29.98-10.35-.34,17.09-19.19,10.06-29.98,10.35h0Z"/>
  <path class="cls-100" d="m1058.4,1941.85c7.32,0,14.6.24,21.92.68-.24,8.79,2.54,25.98-10.89,25.49-13.96-.68-12.84-16.31-11.04-26.17h0Z"/>
  <path class="cls-16" d="m1155.27,1941.85c15.48-.49,13.82,32.52-3.71,27.49-15.38-3.47-9.77-25.63,3.71-27.49h0Z"/>
  <path class="cls-90" d="m824.85,2143.99c-7.13-32.42,5.52-66.94,29.83-89.01-11.33,21.53-25.1,43.46-24.61,68.75-1.9,25,12.06,46.87,24.95,67.04,20.07-3.81,39.89-8.79,59.91-12.65,1.66,29.44-5.81,58.25-9.81,87.26-11.87,87.5-25.63,174.76-39.11,262.06,1.76.34,5.37,1.07,7.18,1.42,11.33-69.63,22.56-139.26,32.76-208.98,21.78,2.2,43.55,4.69,65.28,7.23-17.33,18.02-34.23,36.43-50.78,55.13,25.49,33.2,43.85,71.09,67.68,105.42-16.8,13.04-36.82,20.65-54.98,31.54-4.25-1.12-8.5-2.2-12.74-3.27,9.67,32.13,7.62,66.31,16.99,98.58.73,7.13,1.51,14.31,2.29,21.53,38.53-4.05,76.27-15.09,115.19-14.99-.78,13.96-1.71,27.93-2.59,41.94-7.81,217.38-8.94,434.91-12.55,652.34-2.05,142.38-3.37,284.72-5.81,427.1-67.43-2.69-134.86-5.47-202.34-7.71-12.99.63-26.12,2.25-39.01-.54-34.86-6.25-70.41-3.56-105.62-3.03l-1.03-3.52c7.71-31.01,11.23-62.84,12.45-94.73,1.46-26.56,6.88-52.73,8.06-79.3,13.04-144.58,29.59-288.87,46.14-433.11,50.29,9.52,100.2,21.09,150.88,28.32,17.92,2.49,39.01,4.1,53.17-9.42,15.72-14.84,15.77-38.18,15.77-58.2-1.51-40.72-5.18-81.35-7.32-122.02-2.15-27.78-2.39-55.91-9.08-83.06-1.17-5.71-6.69-8.79-10.45-12.55-14.5-3.81-29.25-6.4-43.95-9.23,10.45-24.27,28.71-44.24,37.55-69.19-21,17.72-28.13,45.56-45.31,66.06-15.19-.24-30.13-3.66-45.12-6.05,14.06-25.1,36.04-45.65,45.26-73.29-23.05,19.92-33.79,49.8-53.08,73.05-10.16-2.44-20.36-4.79-30.57-7.03,2.64.15,8.01.34,10.64.44,7.86-34.57,8.4-70.17,8.89-105.42-33.35,6.74-66.8,12.84-100.29,18.8-1.37-1.66-4.15-4.93-5.52-6.59-.88.73-2.69,2.15-3.56,2.88-16.46-4.54-35.4-9.77-43.95-26.07-18.21-30.76-8.98-68.07-.39-100.34,31.15-106.69,53.37-215.82,84.91-322.41,11.13-40.33,35.01-78.66,72.51-99.12,5.76-2.93,11.67-5.57,17.63-8.25-11.87-13.92-23.93-29.05-26.37-47.8m73.24,409.57c-.49,33.84,4,67.82,12.74,100.54,3.08,8.54,4.49,20.75,15.19,23.1-20.41-44.82-23.24-95.46-20.95-143.99-4.39,6.01-7.71,12.65-6.98,20.36m-127.39,3.61c-11.28,4.79-26.95,3.91-34.03,15.43,34.81-9.91,69.73-20.17,103.95-31.98-24.37-.98-46.63,11.18-69.92,16.55m103.81,11.04c.24,31.84-1.12,63.82,2.78,95.51,1.32,11.72,5.27,23.24,13.87,31.59-15.82-51.03-11.62-105.08-9.86-157.62-7.57,8.25-6.05,20.17-6.79,30.52h0Z"/>
  <path class="cls-23" d="m1486.43,2072.41c43.46-.98,87.26-1.61,130.47,4.1-1.37,2.93-4.05,8.84-5.37,11.82-.73,1.66-2.2,4.98-2.93,6.64l-2.49-8.74c-42.63-6.15-85.84-3.96-128.71-6.93,2.29-1.71,6.79-5.18,9.03-6.88h0Z"/>
  <path class="cls-114" d="m1466.8,2166.85c2.29-29.25,3.03-59.03,10.6-87.55,42.87,2.98,86.08.78,128.71,6.93l2.49,8.74c-4.49,23.83-6.69,48.29-4.2,72.51-20.61,2.05-41.89,2.44-60.79,11.96,1.22,8.59,2.34,17.19,4.25,25.68,1.22,1.71,3.61,5.13,4.79,6.84-5.13,1.07-10.21,2.15-15.28,3.32-2.54.49-7.57,1.46-10.06,1.95,1.86,7.03,3.42,14.21,6.1,21.09,2.54,3.76,5.18,7.52,7.91,11.28-2.34,1.42-6.98,4.25-9.33,5.66-7.03,4.39-17.24,12.5-9.96,21.44,12.06,23.78,45.56,11.33,62.7,28.42-10.99,7.42-24.71,5.76-37.26,6.05-28.76-1.17-59.18,3.32-85.74-10.45-.15-44.68,2.69-89.31,5.08-133.89m64.7-49.71c-14.5,10.4,4.1,33.84,17.72,23.34,9.72-11.72-3.37-32.42-17.72-23.34h0Z"/>
  <path class="cls-82" d="m969.92,2085.35c6.45,29.74,2.15,60.4,3.91,90.62-4.54-1.22-13.67-3.61-18.26-4.83,4.35-28.61,3.22-58.64,14.36-85.79h0Z"/>
  <path class="cls-117" d="m1608.59,2094.97c.73-1.66,2.2-4.98,2.93-6.64,2.1,7.96,4.35,16.36,11.13,21.83-3.91,21.34-1.17,44.92-13.57,63.87l-4.69-6.54c-2.49-24.22-.29-48.68,4.2-72.51h0Z"/>
  <path class="cls-53" d="m1045.51,2100.54c7.08,2.34,14.16,4.69,21.29,7.08-.63-1.37-1.9-4.05-2.54-5.37,1.95,1.56,5.91,4.64,7.91,6.2,10.99,4.05,22.9,2.59,34.33,2.98-1.86,10.21-3.66,20.46-5.52,30.71l-5.81-3.91c-17.68-11.08-34.96-22.8-49.66-37.69h0Z"/>
  <path class="cls-101" d="m1622.66,2110.16c3.42,17.29.63,34.81-.54,52.2,3.56,7.81,9.77,15.77,6.93,24.9-8.01,38.23-2.49,77.98-9.72,116.31-9.28,19.58-30.86,29.25-51.42,31.79-16.99,1.71-29.74,13.23-40.87,25.15-19.82-12.45-44.29-19.09-58.54-38.82,2.83-1.76,8.5-5.27,11.33-7.03,36.77,3.32,73.88,2.69,110.6-1.07-.24-7.57-.44-15.04-.63-22.56,2.1-1.12,6.3-3.37,8.4-4.49,3.27-1.9,9.81-5.71,13.09-7.62-22.17-5.71-45.12-3.91-67.43-.2-1.81.1-5.42.29-7.23.39-9.81-4.39-5.18-15.72-4.64-23.83,2.34-1.42,6.98-4.25,9.33-5.66,23.97-2.1,48.34.39,72.12-4.54-1.95-.68-5.81-2.1-7.76-2.78-14.6-6.74-30.57-3.22-45.41.59-9.42,1.42-19.53,2.98-26.86-4.54-2.69-6.88-4.25-14.06-6.1-21.09,2.49-.49,7.52-1.47,10.06-1.95,20.46-1.22,41.11-.78,61.47-4.2,2.88-.29,8.64-.88,11.57-1.17-.2-1.27-.54-3.76-.73-5.03-20.61.83-41.21,1.37-61.82.24-1.9-8.5-3.03-17.09-4.25-25.68,18.9-9.52,40.19-9.91,60.79-11.96l4.69,6.54c12.4-18.95,9.67-42.53,13.57-63.87h0Z"/>
  <path class="cls-109" d="m2065.87,2110.2c4.44-3.71,15.33,1.27,11.96,7.42-4.49,3.42-15.43-1.32-11.96-7.42h0Z"/>
  <path class="cls-76" d="m2162.74,2113.23c5.52-1.71,11.04-3.42,16.55-5.13-6.98,9.81-11.08,21.14-15.33,32.32-.63-9.08-.98-18.16-1.22-27.2h0Z"/>
  <path class="cls-10" d="m1531.49,2117.14c14.36-9.08,27.44,11.62,17.72,23.34-13.62,10.5-32.23-12.94-17.72-23.34m3.08,3.52c-5.86,6.98.68,13.77,3.76,20.26,2.39-2.15,7.08-6.45,9.42-8.59,1.27-7.23-5.81-15.48-13.18-11.67m1642.38,390.28c3.52-3.76,14.01-5.22,14.94,1.61-1.37,7.81-18.75,7.18-14.94-1.61m-2425.63,476.56c6.49-13.13,16.94-29.3,34.33-22.41,15.87,2.78,14.26,20.75,13.33,32.86-8.5,4.44-16.89,12.26-27.25,9.37-10.64-1.27-14.65-12.5-20.41-19.82m14.84,1.42c.24,9.96,10.35,7.32,17.19,8.11-.2-2.59-.54-7.76-.68-10.4-1.9-2.05-5.66-6.15-7.57-8.2-3.13,3.37-6.1,6.84-8.94,10.5m2429.83,1051.12c1.03-1.71,2.15-3.37,3.32-4.93,16.55,24.51,37.06,46.09,53.22,70.9-21.58-19.53-36.13-45.31-56.54-65.97h0Z"/>
  <path class="cls-111" d="m2056.2,2115.67c6.59-1.42,9.08,1.17,7.42,7.81-7.03,1.66-9.52-.93-7.42-7.81h0Z"/>
  <path class="cls-121" d="m1441.31,2177.93c1.32-13.18,16.02-10.74,25.49-11.08-2.39,44.58-5.22,89.21-5.08,133.89-.05,2.34-.05,7.03-.05,9.38-1.66,4.59-3.42,9.18-5.22,13.77-11.04-6.49-21.48-13.82-31.79-21.34,11.91-40.48,7.76-83.64,16.65-124.61h0Z"/>
  <path class="cls-49" d="m1948.88,2241.36c17.38-41.99,60.4-71.92,106.05-71.97,148.39-4.83,296.87-2.44,445.26-2.93,302.73.29,605.47-.29,908.2,0,29-.98,57.37,10.94,79.05,29.78,3.95,3.91,9.23,8.4,7.71,14.7-12.5-5.61-20.7-18.12-33.25-23.97-28.08-16.45-61.47-12.65-92.53-13.48-242.63.19-485.25.54-727.88.24-195.21,1.12-390.48-3.91-585.6,2.54-40.09,1.12-80.47,24.07-97.41,61.18-11.87,24.02-13.96,52.44-7.52,78.32,12.16,45.21,58.35,77.29,104.79,75.05,260.35-.68,520.7.49,781.05-.49,172.71-.05,345.41,1.32,518.07.24,29.1-1.12,58.64-.93,87.26-7.08,50.39-12.26,82.52-67.14,75.2-117.29-.88-17.48-12.79-31.69-15.38-48.44,7.86-.68,9.18,9.33,12.65,14.5,17.33,34.38,12.99,76.61-5.91,109.38-15.19,21.09-35.74,39.89-61.13,47.51-28.37,9.42-58.64,8.4-88.09,8.79-247.41.93-494.82-1.37-742.24,0-187.16.39-374.32-.68-561.43,0-42.09,1.56-84.03-22.36-103.47-59.77-15.53-29.69-15.72-66.02-3.47-96.83h0Z"/>
  <path class="cls-30" d="m927.1,2176.12c9.52-1.51,18.95-3.47,28.47-4.98,4.59,1.22,13.72,3.61,18.26,4.83,5.57,2.64,10.99,5.62,16.46,8.5,20.02,54.64,19.24,113.72,25.73,170.9-6.01-.78-12.01-1.51-18.02-2.29-2.98,8.69-5.57,18.02-13.82,23.44-.24,2-.68,5.91-.88,7.91-3.17,4.44-6.1,9.08-8.89,13.82,1.12,10.69,15.04,5.81,22.07,7.62,1.81,16.7,4.79,33.25,7.91,49.8.73,11.13-5.27,20.8-10.3,30.27-21.39-34.81-43.7-69.04-65.63-103.47,16.89-21.14,35.69-40.67,56.1-58.4-25.63-5.32-51.71-7.81-77.64-10.94,6.1-45.75,13.48-91.36,20.17-137.01m181.01,1.71c20.36-5.08,41.55-3.56,62.3-3.17l.34,1.95c7.42,43.12,17.19,85.89,22.71,129.35-18.8,3.71-38.48,4-56.45,11.28,26.22,13.28,46.63,34.72,69.29,52.93-14.5,44.38-32.13,87.65-46.83,131.98-1.12-1.66-3.37-5.03-4.49-6.74-1.07,3.13-3.22,9.33-4.3,12.45-2.69-1.03-8.06-3.03-10.74-4-.05-32.42.63-64.84.63-97.27-9.38-.54-18.75-1.03-28.13-1.27,15.48-.49,30.91-1.27,46.44-1.37.05-7.32.2-14.55.44-21.83-5.76-1.07-11.47-2.1-17.14-3.12-3.81-11.43-8.25-22.61-13.38-33.45-1.27,1.9-3.81,5.71-5.08,7.62l-4.05,1.42c-14.99-44.48-16.02-91.89-21.48-138.13-.29-13.43-6.3-32.18,9.91-38.62h0Z"/>
  <path class="cls-33" d="m1178.32,2182.52c26.86,3.56,42.97,28.37,57.37,48.73,37.99,61.52,62.26,130.08,92.82,195.26,1.66,7.96,10.01,2.05,11.28-2.64,24.22-41.41,44.29-85.06,67.58-126.95,6.3.49,12.06,2.34,17.29,5.62,10.3,7.52,20.75,14.84,31.79,21.34,1.81-4.59,3.56-9.18,5.22-13.77,5.96,1.66,12.06,3.22,18.16,4.54-2.83,1.76-8.5,5.27-11.33,7.03,14.26,19.73,38.72,26.37,58.54,38.82,6.79,5.13,20.51,10.45,14.21,21.05-18.07,45.07-38.82,88.96-58.4,133.4-13.92,36.67-31.35,71.88-46,108.25-14.5,31.93-26.42,65.63-47.75,93.85-10.74,13.48-24.32,26.86-41.94,29.98-16.31,2.05-32.62-1.07-48.68-3.32,20.95,106.4,46.83,211.77,69.24,317.87,35.01,159.77,69.53,319.68,105.86,479.15,12.6,58.94,23.78,118.16,38.28,176.66-6.49,1.12-12.99,2.39-19.43,3.76.05,2.49.2,7.52.29,10.06-.88-2.88-2.64-8.59-3.52-11.47-33.64-.54-67.24.93-100.83.73-49.02-228.37-106.05-454.98-156.69-683.01-29.25-125.78-54.59-252.39-82.42-378.47-4.25.15-12.84.54-17.14.68,6.74-.73,13.43-1.86,20.21-2.78-4.79-50.98-13.48-101.66-12.4-153.03,2.69.98,8.06,2.98,10.74,4,1.07-3.12,3.22-9.33,4.3-12.45,1.12,1.71,3.37,5.08,4.49,6.74-3.56,12.99-6.88,26.07-8.98,39.45,9.72-17.77,14.26-37.65,20.85-56.64,13.33-38.57,27.83-76.71,41.94-114.94-17.09-18.6-37.89-33.3-55.86-51.03,14.21-3.22,28.42-6.35,42.63-9.47-5.66-42.58-13.28-84.91-21.73-127m219.97,151.61c18.95,20.31,46.09,30.08,68.75,45.61,17.29,9.62,32.71,23.53,52.49,27.83-19.14-16.26-41.94-27.39-63.28-40.33-19.63-10.5-37.5-24.17-57.96-33.11m-16.85,29.35c7.32,7.47,15.92,13.57,25.15,18.6,32.76,17.77,63.72,38.67,95.46,58.3.34-1.61,1.07-4.83,1.42-6.45-40.97-22.9-78.96-51.86-122.02-70.46m-70.31,118.99c-10.16,25.88-21.53,51.22-30.91,77.39,10.79-3.03,11.87-15.62,16.02-24.27,9.23-27.15,24.17-52.15,30.86-80.18-7.71,7.42-12.26,17.19-15.97,27.05m-59.77,272.07c12.94,34.91,32.52,67.24,52.29,98.63-1.76-15.53-11.03-28.42-18.26-41.7-11.28-19.04-20.31-39.45-34.03-56.93h0Z"/>
  <path class="cls-28" d="m1560.25,2242.87c14.84-3.81,30.81-7.32,45.41-.59-15.14-.93-30.32-.49-45.41.59m-901.95,1932.23l.73-.68c37.01,26.42,75.44,51.12,117.09,69.58,29.25,15.19,62.79,22.46,88.23,44.48-68.55,1.71-137.16.44-205.76.44-13.72-25.2-26.22-51.17-43.16-74.46.05-.88.1-2.73.1-3.61,14.6-11.52,29.15-23.1,42.77-35.74h0Z"/>
  <path class="cls-17" d="m1522.02,2276.71c-7.28-8.94,2.93-17.04,9.96-21.44-.54,8.11-5.18,19.43,4.64,23.83,16.26,8.84,34.81,12.11,53.17,11.91.2,7.52.39,14.99.63,22.56-36.72,3.76-73.83,4.39-110.6,1.07-6.1-1.32-12.21-2.88-18.16-4.54,0-2.34,0-7.03.05-9.38,26.56,13.77,56.98,9.28,85.74,10.45,12.55-.29,26.27,1.37,37.26-6.05-17.14-17.09-50.63-4.64-62.7-28.42h0Z"/>
  <path class="cls-34" d="m2487.65,2268.26c12.7-4.93,25.49,8.94,21.53,21.53-2.29,14.21-22.7,18.16-30.62,6.25-4-9.62-2.49-24.37,9.08-27.78h0Z"/>
  <path class="cls-1" d="m2117.14,2292.82c-9.13-14.99,11.52-32.67,24.95-21.09,11.23,6.64,6.35,20.17,1.95,29.59-9.37.2-22.61,2.49-26.9-8.5h0Z"/>
  <path class="cls-116" d="m2194.09,2271.19c11.82-11.13,31.69,4.25,26.12,18.9-2.69,14.5-25.39,17.14-31.25,3.66-5.47-7.81-.59-16.65,5.13-22.56h0Z"/>
  <path class="cls-38" d="m2266.11,2270.26c10.6-8.11,27.73,1.37,26.22,14.75,1.86,13.57-16.36,24.22-26.56,14.65-10.25-6.49-7.42-22.02.34-29.39h0Z"/>
  <path class="cls-107" d="m2408.98,2272.66c10.69-12.94,33.94,2.15,27.59,17.19-2.69,11.52-19.73,17.72-27.73,7.81-7.08-6.4-6.84-18.6.15-25h0Z"/>
  <path class="cls-51" d="m2554.79,2271.34c8.15-8.11,25.63-2.64,26.71,9.28,3.76,11.13-5.91,23.53-17.68,21.73-15.58-.05-21.44-22.31-9.03-31.01h0Z"/>
  <path class="cls-57" d="m1536.62,2279.1c1.81-.1,5.42-.29,7.23-.39,17.29,6.49,35.94,8.11,54.35,7.81-2.1,1.12-6.3,3.37-8.4,4.49-18.36.2-36.91-3.08-53.17-11.91m-807.03,472.61c33.5-5.96,66.94-12.06,100.29-18.8-.49,35.25-1.03,70.85-8.89,105.42-2.64-.1-8.01-.29-10.64-.44-33.84-7.03-67.58-14.65-101.81-19.58,8.2-21.83,13.48-44.58,21.04-66.6h0Z"/>
  <path class="cls-99" d="m1543.85,2278.71c22.31-3.71,45.26-5.52,67.43.2-3.27,1.9-9.81,5.71-13.09,7.62-18.41.29-37.06-1.32-54.35-7.81h0Z"/>
  <path class="cls-118" d="m1123.73,2353.17c1.27-1.9,3.81-5.71,5.08-7.62,5.13,10.84,9.57,22.02,13.38,33.45,5.66,1.03,11.38,2.05,17.14,3.12-.24,7.28-.39,14.5-.44,21.83-15.53.1-30.96.88-46.44,1.37-38.67.15-77.3.44-115.97.54-7.03-1.81-20.95,3.08-22.07-7.62,2.78-4.74,5.71-9.37,8.89-13.82.2-2,.63-5.91.88-7.91,8.25-5.42,10.84-14.75,13.82-23.44,6.01.78,12.01,1.51,18.02,2.29,34.47,2.34,69.19,1.37,103.66-.78l4.05-1.42h0Z"/>
  <path class="cls-12" d="m996.48,2405.86c38.67-.1,77.29-.39,115.97-.54,9.38.24,18.75.73,28.13,1.27,0,32.42-.68,64.84-.63,97.27-1.07,51.37,7.62,102.05,12.4,153.03-6.79.93-13.48,2.05-20.21,2.78-26.61,1.46-53.22,2.64-79.83,3.32.88-14.01,1.81-27.98,2.59-41.94,3.08-.49,9.18-1.51,12.26-2.05,8.79-1.12,17.53-2.54,26.32-4,5.81-14.94,24.02-12.3,36.72-16.02,3.61-31.98-.83-64.16,2.34-96.14,5.66-14.65,5.96-30.42,4.1-45.8-43.95-4.3-88.18-2.73-132.23-1.37-3.12-16.55-6.1-33.11-7.91-49.8m-460.21,1652.54c12.45-16.7,24.71-33.74,33.54-52.64,17.14,25.78,35.45,50.98,57.62,72.75-4.93,28.42-32.32,43.7-47.31,66.46,7.71,8.06,16.75,14.75,27.1,19.14,3.76-4.54,7.57-9.03,11.43-13.48-1.22,5.86-2.29,11.77-3.27,17.77-1.86,11.67-3.37,23.49-4.98,35.25-32.28-37.55-62.7-76.76-97.51-112.06,7.57-11.28,15.23-22.41,23.39-33.2h0Z"/>
  <path class="cls-39" d="m1004.39,2455.66c44.04-1.37,88.28-2.93,132.23,1.37,1.86,15.38,1.56,31.15-4.1,45.8l-10.84,1.76c1.12-3.32,3.32-9.86,4.39-13.14-9.57,6.3-15.38,15.77.34,21.48-6.3,7.37-2.34,15.33-.54,23.49-4.83.34-14.5.93-19.34,1.27,6.35,2.88,14.31,2.98,19.68,7.81-.05,5.91-4.1,12.55-10.4,13.77,4,2.78,8.06,5.57,11.91,8.69-8.94,1.42-17.53,4.15-25.93,7.47,5.91-.24,17.77-.73,23.68-.98.15,8.3-.05,16.55.39,24.85-8.79,1.27-17.63,2.54-26.42,3.91-8.5,17.82-29,13.04-45.02,12.3,3.17.88,9.52,2.64,12.7,3.47-3.08.54-9.18,1.56-12.26,2.05-38.92-.1-76.66,10.94-115.19,14.99-.78-7.23-1.56-14.4-2.29-21.53,1.86-31.88-1.17-63.67-4.25-95.31,18.16-10.89,38.18-18.51,54.98-31.54,1.17.24,3.52.68,4.69.93.29-.63.98-2,1.27-2.64,5.03-9.47,11.04-19.14,10.3-30.27m11.13,46.09c.29,1.46.83,4.49,1.12,5.96,14.65-.54,29-3.27,43.36-5.96,7.18,1.61,14.16,4.44,21.44,5.71,1.66-3.47,4.93-10.35,6.59-13.82-23.29,7.96-48.29,6.35-72.51,8.11m80.13.1c-5.37,6.35,4.54,18.65,11.28,11.87,6.1-6.59-4.59-17.68-11.28-11.87m-76.66,40.82c25.73-1.61,51.32-6.79,77.15-3.27-4.25-8.98-14.36-6.45-22.22-6.64-18.55,1.12-37.99,1.32-54.93,9.91m14.99,33.79c20.17.24,40.48-4.54,60.45.24-.05-2-.1-5.96-.15-7.91-20.26.34-41.21-.24-60.3,7.67h0Z"/>
  <path class="cls-60" d="m2855.52,2473.39c10.84,0,21.73-.29,32.62-.63l-.88,8.01c-7.81.15-15.53.39-23.19.68-.15,3.08-.34,9.28-.44,12.35,6.64-.24,13.38-.44,20.12-.59l.49,7.91c-6.59.05-13.09.15-19.58.29-.2,6.89-.34,13.77-.44,20.7l-8.98.1c.29-16.31.24-32.57.29-48.83m86.96,13.33c8.74.39,17.53.19,26.37.93-5.27,4.64-11.52,7.96-17.29,11.82-.44,7.91-.78,15.92-.98,23.88-1.95,0-5.86-.05-7.76-.05-.05-12.21.05-24.41-.34-36.57h0Z"/>
  <path class="cls-65" d="m3069.92,2495.12c-14.5-4.88,3.86-14.6,5.96-21.78,3.91,7.42,10.11,13.13,16.16,18.9-3.47.05-10.35.15-13.82.2.24,7.42.54,14.84.93,22.31,5.81,1.22,10.5,4.15,14.16,8.79-7.67-.78-15.09-1.86-22.56-3.22-.29-8.4-.59-16.85-.83-25.2h0Z"/>
  <path class="cls-7" d="m2973.73,2495.17c6.49-14.01,23.54-7.86,35.6-8.54.68,14.4,2.3,29.1-.44,43.41-10.3,11.82-31.3,8.45-37.3-6.01,11.52,2.49,23.88,10.55,34.03.15-5.52-3.03-10.99-5.81-16.41-8.74,23.93,3.47,9.67-35.84-4.74-19.73-11.23,9.18,4.64,19.19,7.86,28.22-13.43-1.56-26.71-15.48-18.6-28.76h0Z"/>
  <path class="cls-54" d="m3034.38,2492.97c15.92-9.72,22.66,23.97,5.52,24.22-12.94.83-15.82-18.65-5.52-24.22h0Z"/>
  <path class="cls-22" d="m3127.98,2499.9c2.73-6.2,10.2-6.69,15.53-9.47,5.18,9.28,6.64,20.21-1.61,28.32-7.52-4.35-17.14-8.3-13.92-18.85h0Z"/>
  <path class="cls-80" d="m3354.25,2494.53c10.16-9.72,25.1,12.16,13.92,19.14-11.87,14.31-31.54-12.16-13.92-19.14h0Z"/>
  <path class="cls-98" d="m920.41,2515.92c4.25,1.07,8.5,2.15,12.74,3.27,3.08,31.64,6.1,63.43,4.25,95.31-9.37-32.28-7.32-66.46-16.99-98.58h0Z"/>
  <path class="cls-85" d="m1039.75,3315.33c3.61-217.43,4.74-434.96,12.55-652.34,26.61-.68,53.22-1.86,79.83-3.32,4.3-.15,12.89-.54,17.14-.68,27.83,126.07,53.17,252.69,82.42,378.47,50.63,228.03,107.67,454.64,156.69,683.01,33.59.2,67.19-1.27,100.83-.73.88,2.88,2.64,8.59,3.52,11.47,28.96,117.29,57.08,234.77,87.4,351.71-2,.34-5.96,1.07-7.96,1.42-48.88,8.25-97.85,16.21-146.88,23.58-20.21,3.27-40.38,6.93-60.5,10.64-17.68-52.73-29.44-107.13-43.46-160.84-22.27-86.28-44.82-172.41-66.02-258.94-29.44-113.09-54.44-227.2-81.69-340.82-31.25-126.95-58.94-254.79-92.82-381.05-2.44,60.74-.1,121.48,1.27,182.23.59,183.2,1.07,366.46-1.42,549.66-1.12,138.57-4.79,277.05-6.74,415.62-17.68-.59-35.35-.88-52.98-.83-53.17,1.07-106.35-1.03-159.52,1.07-8.69-.1-17.43,0-26.12.15,0-3.52-.05-10.55-.05-14.06-.63-125.34-2.15-250.68-3.66-376.03,67.48,2.25,134.91,5.03,202.34,7.71,2.44-142.38,3.76-284.72,5.81-427.1h0Z"/>
  <path class="cls-52" d="m2038.28,2685.64c7.37-1.37,14.8-2.29,22.31-2.69,445.9-.2,891.85.93,1337.74-.1,9.47.05,18.85,1.37,28.17,3.37-30.03,7.37-61.03,2.78-91.55,3.71-183.94.73-367.92-.1-551.86.15-118.75,1.95-237.5-.68-356.25-.2-122.12-.15-244.24-.15-366.36-.2-7.57-.44-14.94-2.2-22.22-4.05h0Z"/>
  <path class="cls-13" d="m1958.45,2740.53c9.37-16.11,22.36-30.13,39.01-38.87-8.45,14.36-18.07,28.13-29.93,39.94-2.25-.24-6.84-.83-9.08-1.07h0Z"/>
  <path class="cls-70" d="m2621.34,2774.32c12.31-1.07,6.2,18.41,8.35,26.61-.05,7.76-.05,15.62-.1,23.49,8.64-.44,17.33-.93,26.07-1.12.98,2.25,2.88,6.79,3.81,9.08-12.89.39-25.83.54-38.72.68-.2-19.58-1.86-39.26.59-58.74m40.92,27.98c8.74-19.09,34.62-17.77,46.05-2,.1,5.27.2,10.6.34,15.97-6.88,21.53-40.43,22.85-46.24-.15-.05-3.42-.1-10.35-.15-13.82m14.06-5.52c-8.01,7.71-8.59,25.05,3.91,28.56,13.57,4.54,24.46-13.72,17.04-24.66-2.54-8.45-14.89-7.67-20.95-3.91m54.2-7.62c10.6-2.2,21.48.63,32.18,1.27.2,14.94.59,29.93.1,44.92-8.84,17.04-34.03,21.19-44.48,3.52,10.69.24,23.73,9.13,32.62-.1,1.32-2.78,3.91-8.35,5.22-11.18-14.7,8.01-30.57,4.74-41.65-7.47,4.64-10.4,3.81-25.88,16.02-30.96m-1.12,32.86c6.59,7.71,16.7.63,24.66-.44-.24-9.67,2.15-22.66-9.91-26.03-14.55-5.08-24.71,16.75-14.75,26.46m46.48-33.2h8.84c0,13.62-.2,27.34,1.17,40.97-2.44.39-7.32,1.12-9.81,1.51.05-14.16-.05-28.32-.19-42.48m638.09,784.18h2.05c.54,26.9,3.56,53.66,5.13,80.52,5.37,62.94,6.45,126.17,12.4,189.01,9.81-21.04,14.55-43.85,21.34-65.92,12.7-41.89,24.56-84.03,35.35-126.46,4.59-15.77,9.37-31.45,14.55-46.97-1.51,11.28-3.42,22.46-6.4,33.5-20.8,70.41-39.01,141.6-61.96,211.43-8.98,31.54-4.59,64.79-6.15,97.12-1.07,34.23-6.64,68.36-2.98,102.64,4.74,48.58,1.37,97.56,5.57,146.24,10.55-12.65,20.02-26.12,29.74-39.45-7.67,16.7-19.78,30.86-27.73,47.36-3.08,27.25,1.56,54.83,1.56,82.23,67.72,1.12,135.5,1.71,203.22-.34.78,1.22,2.39,3.61,3.22,4.79-77.05.05-154.1-.1-231.15.29,7.67-1.9,15.19-4.15,22.85-6.2-7.03-46.78-3.17-94.19-7.32-141.11-2.98-40.92-1.86-81.93-3.32-122.9-.19-28.22-21.97-48.88-35.84-71.44-18.6-30.52-39.11-59.81-58.15-90.09-15.72-23.29-35.55-43.65-49.37-68.26,57.13,60.6,93.95,136.62,142.82,203.52,1.9-46.58,4.1-93.16,6.35-139.7-5.91-70.65-6.49-141.7-13.23-212.26-1.42-22.51-2.1-45.02-2.54-67.53m-2773.83,40.38c20.17,35.94,31.01,76.03,45.8,114.26l1.03,3.52c19.29,60.35,44.09,118.85,62.89,179.44,9.57-21.19,9.62-44.82,14.4-67.19,7.52-36.04,10.69-72.85,20.26-108.4-3.61,44.73-14.45,88.48-19.92,132.96-2.15,22.66-12.94,46-4,68.46,21.48,61.13,42.68,122.46,65.48,183.15,2.29-2.2,6.88-6.64,9.18-8.84,0,3.52.05,10.55.05,14.06,8.69-.15,17.43-.24,26.12-.15l7.03,4.44c-11.77-.15-23.49-.39-35.21-.63,6.69,18.55,14.55,36.77,24.32,54,2-9.42,4.05-18.75,5.86-28.17-2.59,34.42-2.2,69.04-1.42,103.56l.39,6.3c-3.66-13.28-4.79-27-3.52-40.67-29.69-8.5-58.2-20.65-85.25-35.45-24.37-13.57-50.2-25.15-71.68-43.26,54.05,21.68,99.71,65.82,159.33,72.71-8.59-35.74-27.05-67.92-39.79-102.15-34.91-90.09-67.63-181.01-98.29-272.61-15.09-42.04-31.84-83.4-45.36-125.93-11.52-34.86-27.15-68.26-37.7-103.42m2582.37,108.25c21.39,17.97,39.01,40.09,54.88,62.99-21-18.31-38.67-40.43-54.88-62.99m367.87,230.27c8.06,3.81-3.42,18.65-10.45,15.72-3.17-6.54,4.2-14.4,10.45-15.72m-38.92,54.15c6.4-11.18,13.23-22.17,22.41-31.3-18.9,35.69-43.46,68.02-63.09,103.37-14.7,22.56-25.73,47.85-44.09,67.82,27-47.31,55.08-94.14,84.77-139.89m-295.56,105.18c10.64,7.91,19.63,17.87,26.17,29.49-10.25-8.4-19.29-18.21-26.17-29.49m31.1,36.72c6.98-2.64,15.53,8.01,12.74,14.65-7.18,2.59-15.63-8.06-12.74-14.65m17.97,22.17c37.16,37.01,62.65,84.67,102.64,118.99h-14.75c-5.57-11.08-11.57-21.92-19.58-31.35-23.83-28.37-47.31-57.13-68.31-87.65h0Z"/>
  <path class="cls-94" d="m2773.93,2773.97c7.81-3.37,10.99-.88,9.47,7.52-6.98,3.17-10.16.63-9.47-7.52h0Z"/>
  <path class="cls-19" d="m2797.31,2788.23c2.49.73,7.47,2.2,9.96,2.93,9.23-1.07,20.02-4.83,27.54,2.98,2.69,12.3,2.05,25.05,2.39,37.65h-10.4c-.1-11.18-.24-22.31-.39-33.45-6.2-.05-12.35-.05-18.51-.05-.49,10.6-.83,21.24-1.07,31.88-2.59.88-7.72,2.69-10.3,3.56.34-15.19.54-30.37.78-45.51h0Z"/>
  <path class="cls-56" d="m2676.32,2796.78c6.05-3.76,18.41-4.54,20.95,3.91,7.42,10.94-3.47,29.2-17.04,24.66-12.5-3.52-11.91-20.85-3.91-28.56h0Z"/>
  <path class="cls-71" d="m2629.69,2800.93c3.27,4.74,6.59,9.47,9.91,14.31,2.83.98,8.59,2.98,11.47,3.96,3.61-5.71,7.32-11.38,11.18-16.89.05,3.47.1,10.4.15,13.82l.15,6.88-6.88.29c-8.74.2-17.43.68-26.07,1.12.05-7.86.05-15.72.1-23.49h0Z"/>
  <path class="cls-31" d="m945.56,2863.57c3.76,3.76,9.28,6.84,10.45,12.55,6.69,27.15,6.93,55.27,9.08,83.06,2.15,40.67,5.81,81.3,7.32,122.02,0,20.02-.05,43.36-15.77,58.2-14.16,13.53-35.25,11.91-53.17,9.42-50.68-7.23-100.59-18.8-150.88-28.32-41.89-9.28-84.33-16.41-125.78-27.69-13.82-3.37-26.42-12.79-30.76-26.71-9.42-25,3.47-50.54,13.67-73.05,19.34-39.89,35.84-81.01,54.49-121.14l5.22-4.05c-2.1,32.71-14.94,72.36,10.55,99.37,20.36,14.99,47.46,14.65,71.34,20.26,5.76,7.32,9.77,18.55,20.41,19.82,10.35,2.88,18.75-4.93,27.25-9.37,23.63,9.47,49.66,10.45,74.66,7.32,8.01-.88,14.4-6.49,19.14-12.6,27.73-38.92,15.97-95.26,52.78-129.1m-15.48,26.46c-5.32,60.2-1.95,120.75,5.03,180.71,4.15,24.32-5.71,47.27-16.65,68.31,10.89-10.4,20.75-22.95,23.05-38.28,3.81-26.17-2.73-52.25-3.81-78.37-1.03-30.86-3.27-61.77-1.76-92.63.05-13.43,2.64-28.17-5.86-39.75h0Z"/>
  <path class="cls-93" d="m930.08,2890.04c8.5,11.57,5.91,26.32,5.86,39.75-1.51,30.86.73,61.77,1.76,92.63,1.07,26.12,7.62,52.2,3.81,78.37-2.3,15.33-12.16,27.88-23.05,38.28,10.94-21.05,20.8-43.99,16.65-68.31-6.98-59.96-10.35-120.51-5.03-180.71h0Z"/>
  <path class="cls-112" d="m1080.81,2976.9c33.89,126.27,61.57,254.1,92.82,381.05,27.25,113.62,52.25,227.73,81.69,340.82-58.35-1.07-116.6,4.35-174.66,10.01,2.49-183.2,2-366.46,1.42-549.66-1.37-60.74-3.71-121.48-1.27-182.23m1335.74,593.12c27.69,1.81,55.52.88,83.25.93,234.42.29,468.85-.2,703.27.05,42.29-.59,84.67,1.81,126.86-2.59,88.97-.63,177.98-.54,266.94.29l1.12,4.49c-60.6-1.81-121.34-1.9-181.98-.2h-2.05c-31.25-.05-62.65-2.88-93.85-.24-11.23.24-16.6,11.38-20.8,20.02-.34-6.69-.54-13.38-.63-19.97-285.84-1.03-571.68,0-857.52-.54-8.25-.44-16.46-1.32-24.61-2.25h0Z"/>
  <path class="cls-103" d="m2679.83,3086.62c2.05,1.51,6.1,4.54,8.15,6.05,14.94-12.4,34.86,7.03,25.44,22.71-5.52,11.72-19.78,7.32-28.42,2.3.83,5.22,1.71,10.45,2.64,15.72-2.34.29-7.03.78-9.33,1.07.64-15.97-.34-31.98,1.51-47.85m10.2,10.3c-11.08,10.2,5.37,27.05,15.97,17.97,8.4-10.4-4.64-26.32-15.97-17.97h0Z"/>
  <path class="cls-69" d="m2564.75,3096.34c12.84-13.67,23.73,17.72,8.94,20.61-11.96,2.29-18.26-13.53-8.94-20.61m-1098.83,1056.1c19.14-13.77,42.63-17.04,65.04-10.01,2.34,9.08,6.2,18.12,5.91,27.73-1.42,13.48-11.28,24.37-21.87,31.98-14.55.78-31.45.54-41.55-11.62-10.89-9.67-6.84-25.44-7.52-38.09h0Z"/>
  <path class="cls-126" d="m2606.98,3095.36c6.84-7.62,16.5,3.86,18.07,10.5-2.34,6.15-10.99,16.75-17.87,9.62-8.11-3.47-8.3-16.6-.2-20.12m-2080.52,1189.79c28.81-17.72,53.17-41.41,79.74-62.06,2.25-.98,6.64-2.88,8.84-3.81,8.98,24.61,25.1,45.85,35.6,69.87-43.07.15-86.08-1.03-129.15-.68l4.98-3.32h0Z"/>
  <path class="cls-96" d="m2690.04,3096.92c11.33-8.35,24.37,7.57,15.97,17.97-10.6,9.08-27.05-7.76-15.97-17.97h0Z"/>
  <path class="cls-48" d="m2883.15,3097.95c9.81-12.35,27.69,6.2,16.36,16.11-10.64,10.11-25.39-5.37-16.36-16.11h0Z"/>
  <path class="cls-9" d="m2949.66,3116.06c1.71-7.76-1.95-19.68,8.59-22.12,5.47,2.73,10.45,6.3,14.99,10.55-4.35,10.6-12.89,14.06-23.58,11.57h0Z"/>
  <path class="cls-5" d="m703.03,3566.7c1.22-4.39,2.34-8.74,3.42-13.09-1.17,26.56-6.59,52.73-8.06,79.3-1.22,31.88-4.74,63.72-12.45,94.73-14.79-38.23-25.63-78.32-45.8-114.26,10.55,35.16,26.17,68.55,37.7,103.42,13.53,42.53,30.27,83.89,45.36,125.93,30.66,91.6,63.38,182.52,98.29,272.61,12.74,34.23,31.2,66.41,39.79,102.15-59.62-6.88-105.27-51.03-159.33-72.71,21.48,18.12,47.31,29.69,71.68,43.26,27.05,14.79,55.57,26.95,85.25,35.45-1.27,13.67-.15,27.39,3.52,40.67l.24,1.61c1.03,7.52,1.95,15.09,2.78,22.75l-1.07-.05c-25.44-22.02-58.98-29.3-88.23-44.48-41.65-18.46-80.08-43.16-117.09-69.58,26.12-24.17,54.1-49.56,65.58-84.37,4.98-17.87,9.03-37.99,1.56-55.71-12.06-18.65-39.94-17.82-55.22-3.56-18.9,17.97-31.35,42.04-39.94,66.46-.1-3.66-.29-10.99-.39-14.65-.78-1.03-2.39-3.03-3.17-4.05-22.17-21.78-40.48-46.97-57.62-72.75,13.67-34.67,22.36-72.66,16.11-109.96,33.69,10.06,60.16,34.57,91.5,49.51-39.65-65.67-74.27-136.96-85.06-213.62-1.46-24.71-2.3-49.61.29-74.22,4.2-35.99,25.83-70.95,59.62-85.84,15.72-7.91,33.79-5.57,50.73-4.93m-109.37,396.34c9.23,14.01,25.44,20.07,38.62,29.54,13.33,8.98,24.02,21.14,37.01,30.52,1.17-.83,3.56-2.54,4.74-3.37-23.39-22.85-49.51-45.02-80.37-56.69h0Z"/>
  <path class="cls-129" d="m3299.32,3592.77c4.2-8.64,9.57-19.78,20.8-20.02,31.2-2.64,62.6.2,93.85.24.44,22.51,1.12,45.02,2.54,67.53-1.9,8.69-3.96,17.48-6.05,26.27-1.51-8.25-2.98-16.41-4.39-24.51-1.86,9.72-3.71,19.48-5.52,29.3-1.12-9.47-2.25-18.99-3.32-28.42-30.62-1.71-61.33-1.46-91.75,2.73-2.34-17.68-5.32-35.3-6.15-53.13h0Z"/>
  <path class="cls-77" d="m3416.02,3573c60.64-1.71,121.39-1.61,181.98.2,1.22,4.1,2.44,8.3,3.76,12.5-7.96,13.67-3.32,29.74-2.83,44.58-33.5-2.29-68.51-6.49-100.54,6.4,2.98-11.04,4.88-22.22,6.4-33.5-5.18,15.53-9.96,31.2-14.55,46.97-6.05-13.09-6.3-27.59-5.71-41.65-1.51,6.01-3.03,12.01-4.49,18.12-2.69-2.44-5.37-4.83-7.96-7.18-9.28,12.55-23.34,13.87-37.6,10.64-1.12,5.27-2.2,10.55-3.22,15.92-2.54,1.9-7.57,5.66-10.11,7.52-1.56-26.86-4.59-53.61-5.13-80.52h0Z"/>
  <path class="cls-87" d="m3607.42,3695.12c1.12-33.01-8.01-66.16-1.32-98.88,17.33,39.99,32.96,80.71,48,121.63-14.94-8.79-30.22-17.14-46.68-22.75h0Z"/>
  <path class="cls-42" d="m3480.03,3626.61c1.46-6.1,2.98-12.11,4.49-18.12-.59,14.06-.34,28.56,5.71,41.65-10.79,42.43-22.66,84.57-35.35,126.46-6.79,22.07-11.52,44.87-21.34,65.92-5.96-62.84-7.03-126.07-12.4-189.01,2.54-1.86,7.57-5.62,10.11-7.52,1.03-5.37,2.1-10.64,3.22-15.92,14.26,3.22,28.32,1.9,37.6-10.64,2.59,2.34,5.27,4.74,7.96,7.18h0Z"/>
  <path class="cls-84" d="m1080.66,3708.79c58.06-5.66,116.31-11.08,174.66-10.01,21.19,86.52,43.75,172.66,66.02,258.94,14.01,53.71,25.78,108.11,43.46,160.84,20.12-3.71,40.28-7.37,60.5-10.64-4.05,4.3-8.11,8.59-12.11,12.99,2.25,12.35,4.59,24.71,7.08,37.11,6.49,32.96,9.13,66.55,14.31,99.8.34,2.39,1.03,7.23,1.37,9.62.88,6.05,1.76,12.16,2.69,18.31,103.32.29,206.64.2,309.91-.49l-1.46,3.86c-36.96-5.18-74.17-.2-111.28-1.17-150.59-.93-301.17,2.05-451.81.88.2-7.18.24-14.31.24-21.34-3.27-4-6.64-7.76-10.21-11.33-42.29-29.39-91.99-49.61-125.15-90.53l-3.86-5.76c-.98-1.37-2.83-4.2-3.76-5.62-6.3-10.55-12.94-20.9-20.31-30.66,17.63-.05,35.3.24,52.98.83,1.95-138.57,5.62-277.05,6.74-415.62h0Z"/>
  <path class="cls-58" d="m686.96,3731.15c35.21-.54,70.75-3.22,105.62,3.03,12.89,2.78,26.03,1.17,39.01.54,1.51,125.34,3.03,250.68,3.66,376.03-2.29,2.2-6.88,6.64-9.18,8.84-22.8-60.69-43.99-122.02-65.48-183.15-8.94-22.46,1.86-45.8,4-68.46,5.47-44.48,16.31-88.23,19.92-132.96-9.57,35.55-12.74,72.36-20.26,108.4-4.79,22.36-4.83,46-14.4,67.19-18.8-60.6-43.6-119.09-62.89-179.44h0Z"/>
  <path class="cls-73" d="m387.06,3805.18c15.97-7.23,35.16,3.17,41.46,18.65,10.5,24.61,7.23,52.1,1.22,77.39-7.62,30.81-18.21,61.33-34.67,88.53-4.05-5.86-8.3-11.47-12.4-17.19-14.84-25.88-24.9-54.59-32.32-83.45-8.35-31.25,4.69-71.83,36.72-83.94h0Z"/>
  <path class="cls-25" d="m164.4,3874.8c-5.66-16.36,1.12-36.57,18.31-42.38,14.31,1.86,28.76,3.37,42.63,7.52,16.16,5.13,27.59,18.26,41.02,27.78,2.29.44,6.79,1.22,9.03,1.66l2.29.39c14.6,15.87,28.47,33.01,35.69,53.66-2.2,5.81-4.39,11.72-6.59,17.63-16.7.59-33.35,2.1-50,3.81-39.84-3.91-80.37-30.57-92.38-70.07h0Z"/>
  <path class="cls-46" d="m4511.47,3857.23c12.45-9.23,30.52-13.04,44.43-4.79,15.09,8.89,19.24,27.88,19.53,44.19-.88,38.77-25.73,73.49-57.62,93.9-16.5,9.23-34.28,16.41-48.68,29,.15-2.2.49-6.54.63-8.74,2.83-25.63-4-51.32.29-76.86,3.56-29.39,16.89-59.03,41.41-76.71h0Z"/>
  <path class="cls-122" d="m504.74,3903.37c10.16-20.75,33.79-35.11,56.98-31.2,11.67,2.78,19.73,12.99,24.22,23.63,6.25,37.3-2.44,75.29-16.11,109.96-8.84,18.9-21.09,35.94-33.54,52.64-7.91,3.03-15.77,6.15-23.58,9.33-2.1-18.07-4.49-36.04-7.67-53.91-1.46,4.88-2.83,9.86-4.15,14.89-10.3-40.67-16.36-86.62,3.86-125.34h0Z"/>
  <path class="cls-123" d="m4393.02,3969.53c2.69-16.7,5.81-33.35,10.6-49.56,27.44,37.55,31.84,84.62,34.62,129.54,10.89-12.6,19.48-27.15,31.54-38.72-.15,2.2-.49,6.54-.63,8.74-7.91,17.43-23.78,30.96-28.42,50.34,38.13-18.7,76.71-39.26,119.58-44.43,30.37-2.83,63.96,1.76,87.4,23,16.46,14.6,13.38,44.87-5.96,55.62-25.49,14.5-56.69,11.38-84.13,5.03-31.64-9.38-62.74-20.51-94.73-28.52-8.89-2.49-18.07-.34-26.86.98-12.94,39.5-26.32,79.2-32.13,120.56,40.63-29.49,84.23-62.45,137.01-62.35,30.96-1.76,59.13,30.37,51.03,60.84-6.74,23.54-32.23,37.01-55.66,35.4-44.68-4-87.16-22.75-132.42-22.41-.15,25.44,3.42,50.78,4.59,76.22-5.76-.05-11.52-.05-17.19-.05-2.49-19.68-5.37-39.31-8.5-58.84-14.11-3.76-28.32-6.93-42.53-9.96-6.1-7.57-12.5-15.63-22.41-17.92-20.65-6.35-40.87-14.6-58.06-27.88-14.94-16.21-28.52-39.5-19.68-61.91,12.01-18.65,36.77-31.4,58.64-23,18.31,7.18,33.11,20.75,48.78,32.37,4.54-27.98,8.01-56.1,8.98-84.42-19.68-16.02-42.38-30.32-54.49-53.47-6.3-12.45-10.3-27.2-6.74-40.97,11.28-20.61,40.62-23.97,59.86-13.18,15.23,10.06,25.93,25.34,37.89,38.96m-1.07,59.08c-4.79,52.39-1.12,105.08,4.88,157.18,13.18-41.6,24.37-83.84,39.26-124.9-13.18-12.74-28.37-23.05-44.14-32.28h0Z"/>
  <path class="cls-124" d="m306.79,3941.06c2.2-5.91,4.39-11.82,6.59-17.63,1.81,6.3-2.49,16.65,5.66,19.82,22.75,12.45,44.29,27,65.04,42.58l-1.42-13.28c4.1,5.71,8.35,11.33,12.4,17.19.98,1.51,2.93,4.44,3.91,5.91,38.23,27.64,75.34,56.84,109.23,89.79-2.15-18.99-4.83-37.84-7.32-56.74,1.32-5.03,2.69-10.01,4.15-14.89,3.17,17.87,5.57,35.84,7.67,53.91,7.81-3.17,15.67-6.3,23.58-9.33-8.15,10.79-15.82,21.92-23.39,33.2,34.81,35.3,65.23,74.51,97.51,112.06,1.61-11.77,3.13-23.58,4.98-35.25,3.32,7.47,6.64,14.94,9.96,22.51,10.79-5.66,21.88-10.79,32.96-15.82-13.62,12.65-28.17,24.22-42.77,35.74,0,.88-.05,2.73-.1,3.61l-.39,4.83c-2.2.93-6.59,2.83-8.84,3.81,1.51-4.44,2.98-8.89,4.35-13.28-3.71.88-7.47,1.71-11.18,2.49l-2.39-1.46c.98-2,2.98-6.05,4-8.11-32.37-34.03-61.04-71.44-92.33-106.45-1.46,1.56-4.39,4.59-5.86,6.1-7.47-4.2-15.82-5.08-24.17-4.88-1.12-2.15-3.37-6.45-4.49-8.64,9.96,1.03,19.97,2.15,29.98,3.03-35.3-35.94-75.44-67.04-117.19-95.17-4.59,3.86-9.23,7.81-13.87,11.72-6.49-4.54-12.7-10.84-21.24-10.2-23.58-.78-47.27.63-70.61-3.56,33.4-4.83,67.29-.34,100.88-1.27-17.29-14.5-36.62-26.37-56.15-37.55-20.85-12.99-46.29-5.91-69.14-10.99,16.65-1.71,33.3-3.22,50-3.81h0Z"/>
  <path class="cls-68" d="m3599.8,3933.25c6.54.83,7.62,4.2,3.13,10.11-6.69-.88-7.76-4.25-3.13-10.11h0Z"/>
  <path class="cls-91" d="m593.65,3963.04c30.86,11.67,56.98,33.84,80.37,56.69-1.17.83-3.56,2.54-4.74,3.37-12.99-9.37-23.68-21.53-37.01-30.52-13.18-9.47-29.39-15.53-38.62-29.54h0Z"/>
  <path class="cls-8" d="m204.74,4022.22c21.68-16.75,49.02-27,76.46-27.54,23.34,4.2,47.02,2.78,70.61,3.56,8.54-.63,14.75,5.66,21.24,10.2-32.32,30.96-66.26,61.13-106.05,82.23-16.16,8.5-33.54,16.41-52.15,16.8-17.43.34-34.28-13.04-36.62-30.52-4.15-21.88,10.5-41.65,26.51-54.74h0Z"/>
  <path class="cls-11" d="m670.95,4030.76c15.28-14.26,43.16-15.09,55.22,3.56,7.47,17.72,3.42,37.84-1.56,55.71-11.47,34.81-39.45,60.21-65.58,84.37l-.73.68c-11.08,5.03-22.17,10.16-32.96,15.82-3.32-7.57-6.64-15.04-9.96-22.51.98-6.01,2.05-11.91,3.27-17.77,3.76-17.92,8.2-35.64,12.35-53.42,8.59-24.41,21.04-48.49,39.94-66.46h0Z"/>
  <path class="cls-119" d="m4391.94,4028.61c15.77,9.23,30.96,19.53,44.14,32.28-14.89,41.06-26.07,83.3-39.26,124.9-6.01-52.1-9.67-104.78-4.88-157.18m-51.71,192.33c14.21,3.03,28.42,6.2,42.53,9.96,3.12,19.53,6.01,39.16,8.5,58.84-27.98-.15-55.96-.29-83.94-.44,13.33-21.58,23.63-44.82,32.91-68.36h0Z"/>
  <path class="cls-4" d="m341.94,4083.94c42.92-11.52,88.18-3.52,131.3,3.27l.88,1.66c1.12,2.2,3.37,6.49,4.49,8.64,8.35-.2,16.7.68,24.17,4.88-33.45,30.13-73.34,51.66-113.92,70.46-16.31,6.98-33.55,13.53-51.61,13.33-21.87-.54-42.92-18.07-44.09-40.53-.98-28.86,21.73-54.25,48.78-61.72h0Z"/>
  <path class="cls-47" d="m627.44,4078.52c.78,1.03,2.39,3.03,3.17,4.05.1,3.66.29,10.99.39,14.65-4.15,17.77-8.59,35.5-12.35,53.42-3.86,4.44-7.67,8.94-11.43,13.48-10.35-4.39-19.38-11.08-27.1-19.14,14.99-22.75,42.38-38.04,47.31-66.46h0Z"/>
  <path class="cls-63" d="m3038.77,4118.85c42.97-7.96,79.05-39.75,124.17-37.21.78,11.87,1.61,23.78,2.44,35.74-48.14,21.58-80.81,64.45-112.94,104.54-.44-4.79-1.37-14.4-1.86-19.19-1.32-28.27-6.49-56.15-11.82-83.89h0Z"/>
  <path class="cls-125" d="m1425.29,4107.91c49.02-7.37,98-15.33,146.88-23.58,5.86,16.06,10.79,32.42,15.09,49.02-18.65,3.71-37.45,6.59-56.3,9.08-22.41-7.03-45.9-3.76-65.04,10.01-15.33.93-30.52,3.03-45.65,5.57-2.49-12.4-4.83-24.76-7.08-37.11,4-4.39,8.06-8.69,12.11-12.99h0Z"/>
  <path class="cls-15" d="m861.43,4124.66c53.17-2.1,106.35,0,159.52-1.07,7.37,9.77,14.01,20.12,20.31,30.66-5.13-5.47-10.45-10.69-15.72-15.92-16.94.63-33.84,2.15-50.63,4.44-16.41-5.52-34.13-7.32-50.93-2.54.59-2.1,1.71-6.25,2.29-8.3-19.29-.34-38.82,1.07-57.81-2.83l-7.03-4.44h0Z"/>
  <path class="cls-128" d="m868.46,4129.1c18.99,3.91,38.53,2.49,57.81,2.83-.59,2.05-1.71,6.2-2.29,8.3-5.86,3.52-11.62,7.32-17.33,11.13-14.11-.88-28.17-1.76-42.29-2.54,1.27-6.64,2.64-13.23,4.1-19.73h0Z"/>
  <path class="cls-36" d="m1530.96,4142.43c18.85-2.49,37.65-5.37,56.3-9.08,37.26,30.13,69.24,67.09,110.99,91.41,16.36,9.52,32.67,19.29,47.36,31.4-8.2.34-16.36.83-24.51,1.17-11.62-17.53-30.76-26.66-48.24-37.06-4.1-2.98-8.15-5.96-12.16-8.98-5.52-4.49-10.79-9.33-15.72-14.4-2.05-2.15-6.1-6.49-8.15-8.64-8.15-5.66-17.09-10.06-25.88-14.5,2.15-2.1,6.4-6.25,8.5-8.35-2.69-.73-8.11-2.2-10.79-2.93-8.69-5.96-16.31-13.82-26.27-17.68-13.04-2.93-26.51.1-39.65.83-1.12,17.43,5.76,40.09-10.25,52.64-12.4,12.55-30.86,11.23-47.07,11.33l.2-2.93c9.81-1.42,19.68-2.59,29.39-4.49,10.6-7.62,20.46-18.51,21.87-31.98.29-9.62-3.56-18.65-5.91-27.73h0Z"/>
  <path class="cls-72" d="m974.9,4142.77c16.8-2.29,33.69-3.81,50.63-4.44,5.27,5.22,10.6,10.45,15.72,15.92.93,1.42,2.78,4.25,3.76,5.62-11.72,5.57-23.05,12.01-32.67,20.8,12.94-2.98,25.24-8.06,36.52-15.04,33.15,40.92,82.86,61.13,125.15,90.53-103.91,3.86-208.01.39-312.01,1.71-.78-34.52-1.17-69.14,1.42-103.56l.93-5.47c14.11.78,28.17,1.66,42.29,2.54.88,12.7-1.27,27.15,6.59,38.18,15.67,21.83,55.32,16.55,64.45-8.84,4.74-12.45-.54-25.63-2.78-37.94m87.6,48.58c-6.98,2.2-17.48,7.96-16.7,16.36,6.84,2.64,24.71-11.62,16.7-16.36m16.85,37.5c8.98-3.37,16.8-9.08,24.66-14.45-9.13-1.22-31.59,1.07-24.66,14.45h0Z"/>
  <path class="cls-105" d="m1542.72,4145.61c13.13-.73,26.61-3.76,39.65-.83,9.96,3.86,17.58,11.72,26.27,17.68-6.59,6.84-12.5,14.36-17.77,22.31,6.88-3.37,13.67-6.88,20.07-11.03,8.79,4.44,17.72,8.84,25.88,14.5-6.98,8.64-13.92,17.29-20.56,26.22,9.72-5.62,19.24-11.62,28.71-17.58,4.93,5.08,10.21,9.91,15.72,14.4-2.25,7.42-4.49,14.89-6.64,22.46,6.35-4.44,12.6-8.98,18.8-13.48,17.48,10.4,36.62,19.53,48.24,37.06-95.51.54-191.02,1.66-286.52.49-5.18-33.25-7.81-66.85-14.31-99.8,15.14-2.54,30.32-4.64,45.65-5.57.68,12.65-3.37,28.42,7.52,38.09,10.11,12.16,27,12.4,41.55,11.62-9.72,1.9-19.58,3.08-29.39,4.49l-.2,2.93c16.21-.1,34.67,1.22,47.07-11.33,16.02-12.55,9.13-35.21,10.25-52.64h0Z"/>
  <path class="cls-120" d="m4206.89,4154.49c6.98,23.73,8.15,48.58,9.47,73.19,11.28-.73,22.61-1.61,33.98-2.49-8.11-13.13-8.59-28.47-7.13-43.31,5.47-2.29,10.99-4.54,16.55-6.74,17.19,13.28,37.4,21.53,58.06,27.88,9.91,2.29,16.31,10.35,22.41,17.92-9.28,23.54-19.58,46.78-32.91,68.36-29.54-.63-59.03-.63-88.53,0-2.54-13.09-4.98-26.17-7.23-39.26-3.22-27.88-7.76-55.52-10.74-83.4,1.51-3.03,4.54-9.13,6.05-12.16h0Z"/>
  <path class="cls-64" d="m1012.35,4180.66c9.62-8.79,20.95-15.23,32.67-20.8l3.86,5.76c-11.28,6.98-23.58,12.06-36.52,15.04h0Z"/>
  <path class="cls-59" d="m1608.64,4162.45c2.69.73,8.11,2.2,10.79,2.93-2.1,2.1-6.35,6.25-8.5,8.35-6.4,4.15-13.18,7.67-20.07,11.03,5.27-7.96,11.18-15.48,17.77-22.31h0Z"/>
  <path class="cls-29" d="m1062.5,4191.36c8.01,4.74-9.86,18.99-16.7,16.36-.78-8.4,9.72-14.16,16.7-16.36h0Z"/>
  <path class="cls-97" d="m1636.82,4188.23c2.05,2.15,6.1,6.49,8.15,8.64-9.47,5.96-18.99,11.96-28.71,17.58,6.64-8.94,13.57-17.58,20.56-26.22h0Z"/>
  <path class="cls-127" d="m2754.3,4223.97c28.52-7.76,55.66-22.31,85.74-22.75,5.91,24.37,28.71,40.28,52.59,43.8,31.49,4.39,63.72.15,94.24-8.06,19.43-3.42,39.16-3.03,58.79-1.81-.54,18.07.24,36.13.88,54.2-175.2-.29-350.34.1-525.54-.29,22.9-11.82,49.17-11.72,73.54-18.75,53.61-14.16,106.45-31.15,159.77-46.34h0Z"/>
  <path class="cls-89" d="m478.42,4216.16c36.72-11.33,76.07-13.43,113.92-6.98l4.64,1.66,2.39,1.46c3.71-.78,7.47-1.61,11.18-2.49-1.37,4.39-2.83,8.84-4.35,13.28-26.56,20.65-50.93,44.34-79.74,62.06-34.38,7.91-69.92,2.25-104.83,3.76-5.13-6.64-10.11-13.38-14.7-20.31,12.89-28.95,42.97-43.26,71.48-52.44h0Z"/>
  <path class="cls-2" d="m1079.35,4228.86c-6.93-13.38,15.53-15.67,24.66-14.45-7.86,5.37-15.67,11.08-24.66,14.45h0Z"/>
  <path class="cls-67" d="m1660.69,4211.28c4,3.03,8.06,6.01,12.16,8.98-6.2,4.49-12.45,9.03-18.8,13.48,2.15-7.57,4.39-15.04,6.64-22.46h0Z"/>
  <path class="cls-32" d="m862.01,4257.86c104-1.32,208.11,2.15,312.01-1.71,3.56,3.56,6.93,7.32,10.21,11.33-107.23.24-214.4-.98-321.58-1.71l-.24-1.61-.39-6.3h0Z"/>
  <path class="cls-104" d="m1434.57,4257.81c95.51,1.17,191.02.05,286.52-.49,8.15-.34,16.31-.83,24.51-1.17,6.05,10.16,8.35,21.88,10.64,33.4l-7.86-.29-1.32-.15,1.46-3.86c.1-4.3.2-12.84.29-17.14-104.3-1.32-208.59.05-312.89-.68-.34-2.39-1.03-7.23-1.37-9.62h0Z"/>
  <path class="cls-44" d="m862.65,4265.77c107.18.73,214.36,1.95,321.58,1.71,0,7.03-.05,14.16-.24,21.34-106.2-1.27-212.4-1.07-318.55-.29-.83-7.67-1.76-15.23-2.78-22.75h0Z"/>
  <path class="cls-61" d="m1435.94,4267.43c104.3.73,208.59-.63,312.89.68-.1,4.3-.2,12.84-.29,17.14-103.27.68-206.59.78-309.91.49-.93-6.15-1.81-12.26-2.69-18.31h0Z"/>
  <path class="cls-110" d="m1534.57,2120.65c7.37-3.81,14.45,4.44,13.18,11.67-2.34,2.15-7.03,6.45-9.42,8.59-3.08-6.49-9.62-13.28-3.76-20.26m1305.47,2080.57c-.44-24.51,23.24-34.91,43.6-39.21,45.9-2.25,91.75,13.23,127.73,41.65,5.66,8.11,11.03,16.5,16.45,24.9-11.38.83-22.75,1.56-33.89,3.96l-7.08,4.44c-30.52,8.2-62.74,12.45-94.24,8.06-23.88-3.52-46.68-19.43-52.59-43.8h0Z"/>
  <path class="cls-45" d="m3029.83,3825.15c13.04-29.83,44.63-56.69,78.91-48.93,22.95,6.3,27.98,33.84,18.21,53.08-22.71,54.93-81.01,79.35-127.49,110.06,5.86-39.01,14.89-77.88,30.37-114.21h0Z"/>
  <path class="cls-115" d="m3123,3938.57c18.02-15.77,46.39-33.98,69.34-17.24,20.56,19.58,9.77,52.34-3.66,72.95-32.96,48.19-92.43,63.87-144.53,82.08-2.64.24-7.91.68-10.55.88,34.67-43.07,50.63-98.68,89.4-138.67m-287.21,54.39c23.1-16.02,54.74-11.04,77.39,3.32,31.45,19.73,55.96,48.34,86.38,69.53-4,4.35-7.96,8.74-11.91,13.18-26.51.49-53.13-.59-79.44,3.17-22.95-.54-47.17-1.76-67.53-13.48-26.07-14.6-31.59-59.03-4.88-75.73h0Z"/>
  <path class="cls-74" d="m3170.17,4086.08c.78,8.64,1.95,17.24,3.13,25.98,16.94-3.66,35.45-12.99,52.29-4.1,12.26,6.3,24.37,17.63,23.97,32.57-1.03,32.23-26.51,57.86-54.39,70.56-20.95,7.76-42.53,14.55-64.84,16.02-25.83,1.95-51.95-.59-77.49,4.1l-7.18,3.96c1.71-10.84,3.61-21.58,4.93-32.42.49,4.79,1.42,14.4,1.86,19.19,32.13-40.09,64.8-82.96,112.94-104.54l4.93-2.83c.2-9.57-.15-19.04-.15-28.47h0Z"/>
  <path class="cls-24" d="m2980.42,4128.61c16.7-6.54,34.81-7.47,52.49-5.18,6.15,35.01,11.47,70.31,12.4,105.91-11.43-8.5-22.75-16.99-33.94-25.68-35.99-28.42-81.84-43.9-127.73-41.65,32.32-10.99,64.65-21.83,96.78-33.4h0Z"/>
  <path class="cls-3" d="m3293.36,4090.48s-40.31,79.83,131.55,198.63,2.34-147.46,2.34-147.46l-67.16-81.3-66.72,30.13Z"/>
  <path class="cls-92" d="m2224.56,1848.29c5.81,7.76,3.61,17.77,4.1,26.81-.78,10.45,1.81,22.12-4.25,31.45-1.42-19.38-1.12-38.87.15-58.25m111.33-.44c1.07,1.37,3.17,4.1,4.25,5.47,1.32,16.94.34,34.03.59,51.07-14.99-2.78-5.81-17.53-3.76-27-6.93-6.25-16.21-6.05-24.9-5.91-.24,7.91-.29,15.82-.1,23.73,5.03,2.2,9.91,4.74,14.6,7.67-6.49-.34-12.94-.88-19.38-1.51-.05-11.13-5.76-26.32,5.86-33.54,7.42-2.54,15.23.39,22.71,1.37-.15-7.18-.1-14.26.15-21.34m50.34,1.42c7.52,16.46,2.2,35.6,4.54,53.12-12.11-.2-24.61.73-35.45-5.57.15-7.67-1.32-15.72,1.22-23.1,6.49-9.77,18.65-6.93,28.37-5.37.34-4.74.98-14.31,1.32-19.09m-22.95,26.03c-5.81,5.03-2.15,13.82-1.03,20.17,7.86,4.2,16.7,2.78,23.29-3.08-.29-4.88-.78-14.7-1.07-19.58-6.93.24-16.02-4.25-21.19,2.49m-89.89-13.04c6.45,2.29,15.67,2.78,17.48,10.99,1.51,9.77,1.32,19.73,2,29.64-2.78-.34-8.35-1.03-11.13-1.42,1.51-4.74,4.54-14.21,6.05-18.99-9.81,2.49-21.14,3.17-27.15,12.65,7.03,2.64,14.06,5.32,21.09,8.11-7.23-.59-15.28.73-21.78-2.98-1.03-4.2-1.86-8.35-2.54-12.55,9.52-4.69,19.97-6.3,30.47-7.42-1.61-3.37-4.74-10.16-6.35-13.53-7.47,2.64-14.79,5.47-22.31,7.86,4.54-4.3,9.38-8.3,14.16-12.35m-235.25,7.23c3.32-1.46,9.96-4.35,13.28-5.81,12.16,1.51,19.04,8.94,18.8,21.39-9.81.83-19.73,1.27-29.49,1.9.98,17.77,20.9,9.62,31.64,9.13-7.42,11.38-22.36,5.37-33.5,6.01-.49-10.89-.78-21.78-.73-32.62m7.76,3.96c-6.1,10.06,16.99,12.45,17.97,2.88-2.64-6.84-13.04-7.03-17.97-2.88m35.45-6.69c18.21,1.07,36.52.68,54.83.49.98,13.04,1.47,26.12.34,39.16-7.23-9.81-3.08-22.9-4.44-34.08-4.98-.1-9.96-.2-14.84-.2-.05,10.3-.05,20.7.1,31.05-1.27,0-3.86-.05-5.13-.05-.05-10.45-.2-20.95-.34-31.4-4.93.05-14.7.1-19.58.1-.24,10.4-.29,20.85-.2,31.3-1.42.15-4.2.39-5.62.54.24-12.55,1.51-25.63-5.13-36.91m70.51,7.08c5.03-10.84,18.65-7.42,27.98-5.62,10.3,7.62,3.96,22.95,6.2,33.94-10.16-.24-20.36.78-30.42-.49-5.18-4-4.2-9.96-2.44-15.38,6.69-.15,13.43-.34,20.21-.59-6.3,2.88-12.45,5.91-18.55,9.03,7.62,5.13,16.7,3.71,25.15,2.54,0-7.96.05-15.87.15-23.78-2.98-.98-8.94-2.98-11.91-3.95-5.47,1.51-10.89,2.93-16.36,4.3m330.08,6.74c.1-18.12,24.51-18.21,34.13-7.52-7.67-1.12-15.23-2.78-22.85-3.76-8.89,13.62,11.82,12.99,20.02,16.16-.54,5.57-1.03,11.13-1.56,16.75-11.04-.63-26.76,3.27-30.96-10.5,9.57,3.52,27.93,14.65,29.74-2.49-9.62-2.59-19.09-5.57-28.52-8.64m-520.75,222.51c7.67.05,15.33.15,23.05.24.29,6.05.54,12.11.83,18.26-6.84-.1-13.67-.15-20.51-.19.15,3.96.44,11.82.54,15.72-1.22.2-3.76.54-5.03.73.39-11.62.78-23.19,1.12-34.77m6.05,6.59c-6.49,7.86,8.4,12.5,13.18,7.28,5.86-7.71-8.54-13.18-13.18-7.28m240.43,2.69c.63-3.47,1.86-10.4,2.49-13.87.29,12.99-.05,25.98.29,39.01-8.06-2.05-19.09,1.46-24.56-6.15-.98-4.93-.93-9.81.15-14.65,3.61-8.64,14.5-3.17,21.63-4.35m-17.38,1.37c-.54,4.15-1.56,12.45-2.1,16.55,4.15,1.46,12.4,4.35,16.55,5.81,1.32-6.25,2.64-12.45,3.96-18.65-6.15-1.27-12.3-2.49-18.41-3.71m-99.46,15.48c4.49-6.35,8.79-12.79,12.94-19.34,2.39,6.69,5.37,13.13,9.33,19.19,2.73-6.89,2.44-15.77,9.33-20.36-2.88,10.16-6.84,19.97-10.3,29.98-2.78-7.08-5.57-14.11-8.45-21.09-3.61,6.84-6.79,13.92-10.21,20.9-3.47-7.52-6.45-15.23-9.33-22.9l4.59-.39c.49,3.52,1.56,10.5,2.1,14.01m40.33-17.53c7.71.68,21.29-4.1,23.24,7.08,3.96,12.55-10.89,21.83-21.97,16.65-7.71-6.54-3.42-15.82-1.27-23.73m3.81,4.05c-14.5,8.84,6.84,26.95,14.5,13.43,9.37-9.13-5.81-22.85-14.5-13.43m-71.34,7.76c3.96,1.32,11.87,3.91,15.82,5.22-4.93,12.5-16.6,7.96-25.93,3.52,5.32.44,10.69.63,16.06.59-1.47-2.34-4.44-6.98-5.96-9.33m-515.77,81.64c20.61,1.12,41.21.59,61.82-.24.2,1.27.54,3.76.73,5.03-2.93.29-8.69.88-11.57,1.17-15.38-.34-30.91-1.46-46.19.88-1.17-1.71-3.56-5.13-4.79-6.84m788.18,67.29c9.72-11.04,31.2-2.2,29.3,12.79,1.17,10.6-10.94,21.24-21.39,17.68-14.36-1.42-16.94-21.58-7.91-30.47m-1209.62,240.53c-15.72-5.71-9.91-15.19-.34-21.48-1.07,3.27-3.27,9.81-4.39,13.14l10.84-1.76c-3.17,31.98,1.27,64.16-2.34,96.14-12.7,3.71-30.91,1.07-36.72,16.02-8.79,1.46-17.53,2.88-26.32,4-3.17-.83-9.52-2.59-12.7-3.47,16.02.73,36.52,5.52,45.02-12.3,8.79-1.37,17.63-2.64,26.42-3.91-.44-8.3-.24-16.55-.39-24.85-5.91.24-17.77.73-23.68.98,8.4-3.32,16.99-6.05,25.93-7.47-3.86-3.13-7.91-5.91-11.91-8.69,6.3-1.22,10.35-7.86,10.4-13.77-5.37-4.83-13.33-4.93-19.68-7.81,4.83-.34,14.5-.93,19.34-1.27-1.81-8.15-5.76-16.11.54-23.49m1871.92,602.05c8.4-2.73,11.23-.29,8.5,7.37-8.4,2.54-11.23.1-8.5-7.37m-2382.91,1099.46c16.94,23.29,29.44,49.27,43.16,74.46,68.6,0,137.21,1.27,205.76-.44l1.07.05c-.15,1.9-.44,5.76-.63,7.67-81.54-.98-163.09,1.61-244.68.24-90.14-1.95-180.32.54-270.46-1.12,1.03-1.56,3.17-4.64,4.25-6.15,22.56-1.07,45.17.1,67.72-.24,34.91-1.51,70.46,4.15,104.83-3.76l-4.98,3.32c43.07-.34,86.08.83,129.15.68-10.5-24.02-26.61-45.26-35.6-69.87l.39-4.83m2430.22,20.7l7.18-3.96c1.03,19.34,1.07,38.67,1.42,58.06,107.28,0,214.5.15,321.78-.78,4.2.15,12.65.44,16.85.63h14.75l4.1-.15c77.05-.39,154.1-.24,231.15-.29,108.11,1.37,216.36-2.39,324.41,1.81,52.93-5.37,106.54,3.27,159.23-5.18,27.3,8.64,56.69,1.81,84.86,3.81-1.12-9.57-2.25-19.09-3.17-28.56.83-2.64,2.54-7.86,3.37-10.5,2.25,13.09,4.69,26.17,7.23,39.26,29.49-.63,58.98-.63,88.53,0,27.98.15,55.96.29,83.94.44,5.66,0,11.43,0,17.19.05,25.2.68,50.49-1.22,75.64.59,1.42,1.37,4.15,4.15,5.52,5.57-65.92,2.88-132.03,1.32-198,0-797.41.24-1594.82.29-2392.24.34-47.66-.83-95.7,1.46-143.12-1.07-1.95-1.51-5.91-4.49-7.86-5.96l7.86.29c254.93-.34,509.86.34,764.75-.49,175.2.39,350.34,0,525.54.29-.64-18.07-1.42-36.13-.88-54.2h0Z"/>
  <path class="cls-9" d="m1827.73,1134.21h1880.1v573.44c0,983.86-798.77,1782.63-1782.63,1782.63h-97.46V1134.21h0Z"/>
  <path class="cls-102" d="m1827.73,3930.98s-433.81-749.57-182.76-1418.1c16.56-44.1,90.15-20.63,132.29-32.65,913.98-260.65,928.12-1041.32,1269.27-1462.71,356.88-440.81,998.32,381.85,998.32,381.85l-172.88,2120.54-1984.05,623.61-60.18-212.54Z"/>
  <g>
    <path class="cls-20" d="m3982.81,3747.41c6.2,12.79,5.62,27.39,6.01,41.36,1.27,87.11,7.23,174.85,29.39,259.52,19.29,85.4,56.74,166.31,108.3,237.01-52.69,8.45-106.3-.2-159.23,5.18-108.06-4.2-216.31-.44-324.41-1.81-.83-1.17-2.44-3.56-3.22-4.79-10.45-22.02-18.51-45.46-20.75-69.78-4.79-46.39,3.71-92.77,2.25-139.21,12.35,9.23,25.1,18.07,38.77,25.34,85.45,53.42,175.39,99.37,266.85,141.6,18.7,7.18,19.63,30.13,31.59,43.85-2.83-19.58-13.43-36.67-19.92-55.08-11.77-31.98-23.39-64.11-36.18-95.7-5.81-15.43-14.4-31.98-7.81-48.63,31.59-112.4,61.18-225.34,88.38-338.87h0Z"/>
    <path class="cls-86" d="m3936.77,4240.19c-92.14-39.9-180.42-88.48-266.85-139.46-16.75-11.08-33.2-22.51-49.22-34.52-.97-32.42-2.1-65.04-9.13-96.83-2.49-15.13-9.08-32.81,3.03-45.55-17.24-2.05-29.2-15.38-40.04-27.49-26.46-30.62-43.85-68.31-54-107.28-5.47-23.19-8.74-50.73,8.1-70.21,17.78-24.37,50.98-27.88,78.76-23.73,16.46,5.61,31.74,13.96,46.68,22.75-15.04-40.92-30.66-81.64-48-121.63-1.12-2.64-3.27-7.91-4.34-10.55-1.32-4.2-2.54-8.4-3.76-12.5l-1.12-4.49c2.45.01,4.91.03,7.39.05,28.39.25,57.89.78,83.72-12.6,9.53-4.14,18.07-9.89,25.65-16.74.43,1.58.86,3.17,1.3,4.76,21.54,78.84,44.3,159.18,53.32,192.45,22.02,73.78,42.53,148,66.75,221.09-46.53-24.6-88.53-56.68-131.45-87.01-58.35-41.21-107.66-93.84-165.67-135.35,8.74,11.57,19.78,21.05,30.81,30.42,38.72,32.47,75.64,67.14,116.07,97.61,49.31,36.13,98.43,73.09,152.24,102.49,32.38,91.75,64.26,183.69,99.76,274.32Z"/>
    <path class="cls-86" d="m3768.18,3322.57s-.01-.03-.02-.04c-153.19-237.44-247.87,23.77-227.31,118.75,3.82,17.65,38.74,82.79,63.42,127.47,13.93,25.21,24.6,43.9,24.6,43.9l86.07-68.48c-.44-1.59-.87-3.18-1.3-4.76-19.59-71.8-37.93-141.53-43.72-172.43,10.91,34.43,29.02,98.49,48.33,168.03.5,1.78.99,3.56,1.49,5.35l14.13-11.25s187.46,30.87,34.31-206.54Z"/>
    <path class="cls-41" d="m4346.05,3144.78c33.11-18.51,73.78-27.2,110.3-13.62,64.4,23.58,112.65,86.43,118.51,154.83,8.35,71.73-7.18,143.36-26.61,212.06-30.42,101.81-72.31,199.66-106.2,300.29-16.46,39.31-25.63,81.1-38.43,121.63-4.79,16.21-7.91,32.86-10.6,49.56-11.96-13.62-22.66-28.91-37.89-38.96-19.24-10.79-48.58-7.42-59.86,13.18-3.56,13.77.44,28.52,6.74,40.97,12.11,23.14,34.81,37.45,54.49,53.47-.98,28.32-4.44,56.45-8.98,84.42-15.67-11.62-30.47-25.2-48.78-32.37-21.88-8.4-46.63,4.35-58.64,23-8.84,22.41,4.74,45.7,19.68,61.91-5.57,2.2-11.08,4.44-16.55,6.74-1.46,14.84-.98,30.18,7.13,43.31-11.38.88-22.7,1.76-33.98,2.49-1.32-24.61-2.49-49.46-9.47-73.19-1.51,3.03-4.54,9.13-6.05,12.16-10.4-77.78-12.21-156.4-9.77-234.77,1.03-27.98,20.07-50.1,33.45-73.29,45.17-74.9,99.27-143.95,154.15-211.87,5.37-6.84,10.01-14.16,14.4-21.63-21.24,15.04-34.47,37.94-50.88,57.52-53.61,67.19-103.08,137.65-146.63,211.77-.73-8.79,1.32-18.12-2-26.37-7.13,11.96-5.13,28.76-6.98,42.72-5.42,74.07-1.32,148.29,2.98,222.27-25.98-48-53.47-95.17-78.96-143.36-8.15-14.26-14.36-30.47-27.64-40.87,33.79,69.04,75.2,134.28,109.42,203.08,6.84,35.94,8.25,72.8,15.82,108.69.93,9.47,2.05,18.99,3.17,28.56-28.17-2-57.57,4.83-84.86-3.81-51.56-70.7-89.01-151.61-108.3-237.01-22.17-84.67-28.13-172.41-29.39-259.52-.39-13.97.2-28.56-6.01-41.36,8.01-36.23,11.23-73.49,21.68-109.23,37.65-141.85,108.25-275.05,206.1-384.57,39.75-42.19,84.37-80.91,135.45-108.84m15.82,102.93c-22.17,55.81-43.12,112.21-61.18,169.53-8.4,26.71-19.53,52.59-25,80.13,12.21-13.62,14.16-33.06,21.09-49.51,22.12-66.7,44.09-133.54,71.53-198.29-1.61-.49-4.83-1.42-6.45-1.86m24.41,92.09c-37.35,53.42-72.56,108.2-106.25,163.96-1.71-.59-5.18-1.76-6.93-2.34-12.5,41.94-25.83,83.64-35.35,126.42-15.53,68.6-32.37,137.21-40.92,207.13l5.52-5.52c18.16-98.58,37.35-197.46,66.41-293.6,12.7-27.83,32.03-52.05,46.83-78.81,31.45-54.39,71.44-103.42,103.32-157.37-14.26,10.25-22.36,26.32-32.62,40.14m-248.19,150.49c2.49,49.61,12.26,98.49,18.6,147.7,8.54,65.92,21.44,131.3,28.03,197.46,2.2-2.93,4.35-5.81,6.54-8.64-16.99-108.69-33.5-217.48-47.9-326.51-.83-3.81-2.59-7.18-5.27-10.01m47.46,348.83c3.22,6.1,3.86,14.01,9.18,18.8,9.42-2.98,3.32-15.87,5.86-22.8-3.76,1.03-11.28,3.03-15.04,4h0Z"/>
    <path class="cls-86" d="m3978.52,3742.92c-29.06,116.11-57.87,232.32-90.14,347.56-10.06-13.72-12.06-31.3-18.07-46.83-19.87-57.03-40.13-113.96-56.64-172.07-6.64-25.49-19.87-50.68-14.6-77.68,10.6-76.42,19.44-153.08,29.3-229.54,2.98-23.25,8.01-46.29,7.96-69.78-8.25,18.85-9.28,39.7-12.06,59.86-5.91,48.83-13.04,97.46-18.22,146.39-4.15,32.57-6.98,65.43-14.59,97.46-14.45-49.35-44.14-158.56-71.72-257.93-.5-1.79-.99-3.57-1.49-5.35,11.11-11.27,19.95-24.93,26.67-39.16,10.79-22.71,10.74-48.39,10.79-73-.24-37.21.25-74.36-.92-111.52,4.61,3.58,9.06,7.33,13.39,11.24,12.88,11.57,24.63,24.39,36.21,37.29,35.99,42.09,65.63,89.36,89.31,139.36,32.52,62.94,51.27,131.54,76.03,197.61,4.64,14.84,12.74,30.17,8.79,46.09Z"/>
    <path class="cls-3" d="m3290.24,3144.78c51.07,27.93,95.7,66.65,135.45,108.84,97.85,109.52,168.46,242.72,206.1,384.57,10.45,35.74,13.67,73,21.68,109.23-6.2,12.79-5.62,27.39-6.01,41.36-1.27,87.11-7.23,174.85-29.39,259.52-19.29,85.4-56.74,166.31-108.3,237.01-27.3,8.64-56.69,1.81-84.86,3.81,1.12-9.57,2.25-19.09,3.17-28.56,7.57-35.89,8.98-72.75,15.82-108.69,34.23-68.8,75.63-134.03,109.42-203.08-13.28,10.4-19.48,26.61-27.64,40.87-25.49,48.19-52.98,95.36-78.96,143.36,4.3-73.97,8.4-148.19,2.98-222.27-1.86-13.96.15-30.76-6.98-42.72-3.32,8.25-1.27,17.58-2,26.37-43.55-74.12-93.02-144.58-146.63-211.77-16.41-19.58-29.64-42.48-50.88-57.52,4.39,7.47,9.03,14.8,14.4,21.63,54.88,67.92,108.98,136.96,154.15,211.87,13.38,23.19,32.42,45.31,33.45,73.29,2.44,78.37.63,156.98-9.77,234.77-1.51-3.03-4.54-9.13-6.05-12.16-6.98,23.73-8.15,48.58-9.47,73.19-11.28-.73-22.61-1.61-33.98-2.49,8.11-13.13,8.59-28.47,7.13-43.31-5.47-2.29-10.99-4.54-16.55-6.74,14.94-16.21,28.52-39.5,19.68-61.91-12.01-18.65-36.77-31.4-58.64-23-18.31,7.18-33.11,20.75-48.78,32.37-4.54-27.98-8.01-56.1-8.98-84.42l-36.52-68.65c-2.69-16.7-5.81-33.35-10.6-49.56-12.79-40.53-21.97-82.32-38.43-121.63-33.89-100.63-75.78-198.49-106.2-300.29-19.43-68.7-34.96-140.33-26.61-212.06,5.86-68.41,54.1-131.25,118.51-154.83,36.52-13.57,77.2-4.88,110.3,13.62m-15.82,102.93c-1.61.44-4.83,1.37-6.45,1.86,27.44,64.75,49.41,131.59,71.53,198.29,6.93,16.46,8.89,35.89,21.09,49.51-5.47-27.54-16.6-53.42-25-80.13-18.07-57.32-39.01-113.72-61.18-169.53m-24.41,92.09c-10.25-13.82-18.36-29.88-32.62-40.14,31.88,53.96,71.87,102.98,103.32,157.37,14.8,26.76,34.13,50.98,46.83,78.81,29.05,96.14,48.24,195.02,66.41,293.6l5.52,5.52c-8.54-69.92-25.39-138.53-40.92-207.13-9.52-42.77-22.85-84.47-35.35-126.42-1.76.59-5.22,1.76-6.93,2.34-33.69-55.76-68.9-110.55-106.25-163.96m248.19,150.49c-2.69,2.83-4.44,6.2-5.27,10.01-14.4,109.03-30.91,217.82-47.9,326.51,2.2,2.83,4.35,5.71,6.54,8.64,6.59-66.16,19.48-131.54,28.03-197.46,6.35-49.22,16.11-98.1,18.6-147.7m-47.46,348.83c-3.76-.98-11.28-2.98-15.04-4,2.54,6.93-3.56,19.82,5.86,22.8,5.32-4.79,5.96-12.7,9.18-18.8h0Z"/>
  </g>
  <path class="cls-27" d="m2877.88,3730.32c1.56-22.31,17.14-47.02,41.89-46.68,22.85,1.22,36.04,23.19,44.48,41.89,16.36,41.06,16.89,88.48,1.61,129.98,29.44,63.13,46.19,131.54,60.21,199.51-1.22,6.35-2.34,12.74-3.52,19.19-8.94-41.26-16.26-83.06-29.74-123.05-2.59-10.06-12.55-15.04-21.92-16.7-53.61-7.81-107.28,18.07-160.45,3.37-19.97-4.59-40.14-19.19-42.09-40.97-2.1-19.97,15.48-35.21,33.06-40.38,26.03-7.28,54.35-4.49,79.15,5.81,41.85,16.16,75.63,46.24,108.59,75.73-6.25-23.05-14.01-45.75-23.93-67.48-4.64-12.65-18.31-17.09-28.22-24.51-37.01-25.29-65.53-69.43-59.13-115.72h0Z"/>
</svg>