<?xml version="1.0" encoding="UTF-8"?>
<svg id="Layer_1" data-name="Layer 1" xmlns="http://www.w3.org/2000/svg" viewBox="0 0 2091 1948">
  <defs>
    <style>
      .cls-1, .cls-2, .cls-3 {
        fill: #fff;
      }

      .cls-1, .cls-2, .cls-4, .cls-5, .cls-6, .cls-7, .cls-8 {
        stroke-miterlimit: 10;
      }

      .cls-1, .cls-2, .cls-5 {
        stroke: #000;
      }

      .cls-1, .cls-4, .cls-5 {
        stroke-width: 1.92px;
      }

      .cls-2 {
        stroke-width: .96px;
      }

      .cls-4, .cls-6, .cls-7, .cls-8, .cls-9 {
        fill: none;
        stroke: #fff;
      }

      .cls-4, .cls-6, .cls-8, .cls-9 {
        stroke-linecap: round;
      }

      .cls-10 {
        fill: #e6f0ff;
      }

      .cls-11 {
        fill: #4469c6;
      }

      .cls-5 {
        fill: #fcfcfc;
      }

      .cls-12 {
        fill: #88a9ed;
      }

      .cls-6 {
        stroke-width: 4.81px;
      }

      .cls-7 {
        stroke-width: 2.88px;
      }

      .cls-13 {
        fill: #9cb4d8;
      }

      .cls-8 {
        stroke-width: 1.85px;
      }

      .cls-14 {
        fill: #1a42ba;
      }

      .cls-9 {
        stroke-linejoin: round;
        stroke-width: 3px;
      }
    </style>
  </defs>
  <rect class="cls-12" width="3000" height="2000"/>
  <rect class="cls-14" x="-478" y="-112.62" width="3956" height="2225.25" rx="69.81" ry="69.81"/>
  <g>
    <path class="cls-11" d="m1399.3,763.65l-80.4,172.27-136.2-28.29,7.03-21.54,113.05,25.18,71.71-148.13c.72-1.52,1.82-2.83,3.18-3.82,3.63-2.63,11.19-6.53,19.76-1.53,2.04,1.19,2.88,3.72,1.88,5.86Z"/>
    <rect class="cls-13" x="979.62" y="1020.91" width="260.64" height="393.37" transform="translate(2219.88 2435.18) rotate(180)"/>
    <path d="m1227.26,1180.42l-10.56,31.36s16.2,19.14,15.43,41.06c0,0-65.8-31.96-64.94-37.33.87-5.37,23.3-54.8,23.3-54.8l36.78,19.7Z"/>
    <path d="m1395.11,1140.17l19.24,26.93s25.01-1.92,42.32,11.54c0,0-64.44,34.62-68.29,30.78-3.85-3.85-30.78-50.97-30.78-50.97l37.51-18.27Z"/>
    <path class="cls-1" d="m1310.47,953.58c4.37-8.53,110.39,177.1,108.68,180.82l-79.83,40.4-53.86-87.52,25.01-133.69Z"/>
    <path class="cls-1" d="m1172.67,901.54s163.09,14.53,153.82,84.26c0,0,4.92,52.42-76.72,206.78l-82.6-28.37,68.29-142.34-202.46-3.16s-71.57-23.07-49.01-119.12l93.73-20.13,94.95,22.08Z"/>
    <path class="cls-2" d="m1068.1,731.41s-4.81,27.89-9.62,32.7c-4.81,4.81-20.2,4.81-20.2,4.81l-27.89-22.12,20.2-29.82,37.51,14.43Z"/>
    <g>
      <circle class="cls-3" cx="1065.7" cy="683.8" r="50.49" transform="translate(-95.77 179.53) rotate(-9.22)"/>
      <path d="m1065.7,633.79c27.58,0,50.01,22.44,50.01,50.01s-22.44,50.01-50.01,50.01-50.01-22.44-50.01-50.01,22.44-50.01,50.01-50.01m0-.96c-28.15,0-50.97,22.82-50.97,50.97s22.82,50.97,50.97,50.97,50.97-22.82,50.97-50.97-22.82-50.97-50.97-50.97h0Z"/>
    </g>
    <path class="cls-5" d="m1252.97,891.56c4.09,1.67,6.79,11.37,10.21,14.68,3.42,3.31,8.36.56,3.21-7.06m-13.84,2.71c5.15,7.62,1.43,11.14-2.53,8.51-1.75-1.16-4.02-4.61-5.94-7.96-3.2-5.58-8.75-9.43-15.11-10.38-12.29-1.83-35.42-2.29-72.84,7.56-60.98,16.06-99.51,14.6-110.48-47.16l41.58-10.65c.48,1.15,7.79,31.94,7.79,31.94,0,0,112.69-12.94,129.49-12.93,17.38,0,44.58,23.98,47.92,36.81.63,2.42.73,8.42-6.04,1.56-1.79-1.81-3.43-6.39-8.48-10.37m1.7,12.15c5.15,7.62,1.56,10.94-2.53,8.51-3.88-2.31-4.49-12.34-10.36-16.65"/>
    <path class="cls-1" d="m1297.01,858.36c7.69,1.92,12.45,11.78,17.31,12.5,5.12.76,7.37-4.06-.96-9.62m6.09-4.59c8.33,5.56,4.49,10.36-.32,8.44-4.81-1.92-11.54-10.58-16.35-10.58m16.67,2.14c8.33,5.56,4.49,10.36-.32,8.44-4.81-1.92-11.54-10.58-16.35-10.58m3.85,10.58c8.33,5.56,6.04,10.63.96,9.62-2.24-.45-5.95-2.99-9.27-5.57-5.53-4.31-12.71-5.9-19.51-4.22-13.14,3.23-36.64,12.31-70.28,37.69-54.82,41.36-94.26,55.78-130.8-1.92l37.51-27.89c.96.96,15.39,21.16,15.39,21.16,0,0,113.87-51.74,130.8-58.67,17.52-7.17,54.82,5.77,63.48,17.31,1.63,2.18,4.21,8.18-5.45,4.06-2.55-1.09-6.09-5.02-12.82-6.95"/>
    <g>
      <rect class="cls-13" x="756.96" y="1089.67" width="187.55" height="324.12" transform="translate(1701.48 2503.47) rotate(180)"/>
      <circle class="cls-10" cx="843.79" cy="1128.8" r="9.32"/>
      <circle class="cls-10" cx="781.97" cy="1147.43" r="9.32" transform="translate(-582.32 889.01) rotate(-45)"/>
      <circle class="cls-10" cx="831.09" cy="1183.85" r="9.31"/>
      <circle class="cls-10" cx="814.15" cy="1238.89" r="9.32" transform="translate(-637.57 938.56) rotate(-45)"/>
      <circle class="cls-10" cx="800.6" cy="1300.71" r="9.32" transform="translate(-685.25 947.08) rotate(-45)"/>
      <circle class="cls-10" cx="840.4" cy="1343.05" r="9.32"/>
      <circle class="cls-10" cx="795.52" cy="1365.91" r="9.32" transform="translate(-770.35 1581.84) rotate(-67.63)"/>
      <circle class="cls-10" cx="864.11" cy="1284.62" r="9.32" transform="translate(-655.27 987.28) rotate(-45)"/>
      <circle class="cls-10" cx="873.43" cy="1223.65" r="9.32"/>
      <circle class="cls-10" cx="917.46" cy="1202.48" r="9.32" transform="translate(-548.73 831.05) rotate(-38.44)"/>
      <circle class="cls-10" cx="917.46" cy="1270.22" r="9.32" transform="translate(-590.85 845.74) rotate(-38.44)"/>
      <circle class="cls-10" cx="894.6" cy="1323.57" r="9.31"/>
      <circle class="cls-10" cx="917.46" cy="1364.22" r="9.32" transform="translate(-317.16 278.62) rotate(-14.75)"/>
      <circle class="cls-10" cx="885.29" cy="1162.68" r="9.32" transform="translate(-562.84 966.53) rotate(-45)"/>
    </g>
    <path class="cls-4" d="m903.16,663.6s-52.9,37.51-80.79-25.97c-27.89-63.48,56.12,7.86-19.32,40.88-35.02,11.54-48.49-33.66-62.91-56.75-14.43-23.08-37.51-13.47-41.36,24.04-4.88,44.62-31.49,18.49-45.76.74-16.52-20.55-47.23-23.06-66.38-4.94-.45.43-.9.87-1.35,1.32"/>
    <path class="cls-4" d="m526.7,938.19c35.02-11.54,48.49,33.66,62.91,56.75,14.43,23.08,37.51,13.47,41.36-24.04,4.88-44.62,31.49-18.49,45.76-.74,16.52,20.55,47.23,23.06,66.38,4.94.45-.43.9-.87,1.35-1.32"/>
    <line class="cls-7" x1="1564.87" y1="1414.28" x2="526.13" y2="1414.28"/>
    <path d="m910.39,764.91c37.69,14.45,70.61,18.57,91.34-3.69l42.32-55.78c-4.81,2.89-17.31-18.27-4.81-23.08s15.39,7.69,15.39,7.69c25.97,3.85,36.55-25.01,36.55-25.01,11.54,20.2,25.01,16.35,25.01,16.35-5.12-52.4-54.8-55.55-87.01-41.89,2.12-2.88,3.34-6.34,3.34-10.05,0-10.09-9.04-18.27-20.2-18.27s-20.2,8.18-20.2,18.27,9.04,18.27,20.2,18.27c.84,0,1.66-.05,2.48-.14-8.34,6.22-13.49,13.73-13.06,21.3.68,11.88-12.5,9.62-12.5,9.62-36.55-3.85-37.51,22.12-37.51,22.12-2.89,20.2-15.39,21.16-15.39,21.16-23.35,5.43-31.54,17.3-34.24,26.6-1.97,6.79,1.69,13.98,8.3,16.51Z"/>
    <path d="m1062.27,761.22c.77-.07,1.58,19.18,1.87,26.78.07,1.92.93,3.71,2.38,4.97,8.8,7.69,41.01,37.3,57,71.68,1.4,3.01.41,6.6-2.29,8.54l-44.66,32.02c-1.13.81-2.47,1.26-3.86,1.3l-123.82,3.54c-4.49.13-7.94-3.97-7.03-8.37,5.23-25.41,23.14-100.93,58.5-143.79.28-.34.53-.71.74-1.1l4.07-7.58c1.82-3.39,6.04-4.67,9.43-2.85,10.59,5.67,32.73,16.29,47.67,14.87Z"/>
    <line class="cls-6" x1="1005.59" y1="768.92" x2="1005.59" y2="788.4"/>
    <line class="cls-6" x1="1051.88" y1="788.28" x2="1032.39" y2="788.28"/>
    <line class="cls-6" x1="1002.38" y1="817.12" x2="1016.49" y2="803.68"/>
    <line class="cls-6" x1="1046.81" y1="813.2" x2="1045.15" y2="832.61"/>
    <line class="cls-6" x1="1069.01" y1="813.73" x2="1086.43" y2="822.46"/>
    <line class="cls-6" x1="1079.72" y1="848.92" x2="1098.8" y2="844.98"/>
    <line class="cls-6" x1="1068.26" y1="872.65" x2="1079.48" y2="888.58"/>
    <line class="cls-6" x1="1016.11" y1="759.87" x2="1033.53" y2="768.6"/>
    <line class="cls-6" x1="974.01" y1="826.29" x2="987.15" y2="840.67"/>
    <line class="cls-6" x1="1008.39" y1="839.25" x2="1027.79" y2="837.33"/>
    <line class="cls-6" x1="1029.31" y1="853.91" x2="1045.34" y2="865"/>
    <line class="cls-6" x1="971.61" y1="856.79" x2="987.63" y2="867.88"/>
    <line class="cls-6" x1="958.71" y1="867.98" x2="958.21" y2="887.46"/>
    <line class="cls-6" x1="997.05" y1="888.65" x2="977.57" y2="887.96"/>
    <line class="cls-6" x1="1035.12" y1="895.39" x2="1024.14" y2="879.29"/>
    <path d="m1045.5,689.03c-2.83,4.04-1.18,7.79,2.91,9.83,1.19.6.27,2.36-.9,1.72-4.19-2.87-5.82-7.58-2.02-11.54h0Z"/>
    <path d="m1082.05,731.41c-6.81-.3-13.39-4.71-14.99-11.52-.03-.11.14-.16.17-.05,1.78,6.5,8.3,10.58,14.86,10.6.64,0,.61.99-.03.96h0Z"/>
    <circle class="cls-8" cx="1470.13" cy="1007.44" r="12.98"/>
    <circle class="cls-8" cx="597.79" cy="566.94" r="12.98"/>
    <path d="m1066.66,738.88s-12.51-.26-20.2-7.95c0,0,14.43,4.81,20.68,3.45l-.48,4.5Z"/>
    <path class="cls-3" d="m1260.54,536.72c41.13,0,74.6,33.46,74.6,74.6s-33.46,74.6-74.6,74.6-74.6-33.46-74.6-74.6,33.46-74.6,74.6-74.6m0-3c-42.85,0-77.6,34.74-77.6,77.6s34.74,77.6,77.6,77.6,77.6-34.74,77.6-77.6-34.74-77.6-77.6-77.6h0Z"/>
    <line class="cls-9" x1="1260.54" y1="555.37" x2="1260.54" y2="611.32"/>
    <line class="cls-9" x1="1287.99" y1="638.77" x2="1260.54" y2="611.32"/>
    <g>
      <path class="cls-3" d="m1260.54,616.63c-2.93,0-5.31-2.38-5.31-5.31s2.38-5.31,5.31-5.31,5.31,2.38,5.31,5.31-2.38,5.31-5.31,5.31Z"/>
      <path class="cls-3" d="m1260.54,606.51c2.65,0,4.81,2.16,4.81,4.81s-2.16,4.81-4.81,4.81-4.81-2.16-4.81-4.81,2.16-4.81,4.81-4.81m0-1c-3.21,0-5.81,2.6-5.81,5.81s2.6,5.81,5.81,5.81,5.81-2.6,5.81-5.81-2.6-5.81-5.81-5.81h0Z"/>
    </g>
  </g>
</svg>